<?xml version="1.0" encoding="UTF-8"?><svg id="_レイヤー_2" xmlns="http://www.w3.org/2000/svg" xmlns:xlink="http://www.w3.org/1999/xlink" viewBox="0 0 49.61 45.43"><defs><style>.cls-1{fill:none;}.cls-2{fill:#fff;}.cls-3{clip-path:url(#clippath);}</style><clipPath id="clippath"><rect class="cls-1" x="2.53" y="11.06" width="44.55" height="23.32" transform="translate(-8.68 19.5) rotate(-37)"/></clipPath></defs><g id="_レイヤー_1-2"><g id="_グループ_64"><g class="cls-3"><g id="_グループ_63"><path id="_パス_486" class="cls-2" d="M19.17,31.68l.78-.51,15.3-10.01c1.87,2.87,5.71,3.67,8.58,1.8,2.87-1.87,3.67-5.71,1.8-8.58-.91-1.4-2.35-2.37-3.98-2.69.74-3.34-1.38-6.65-4.72-7.39s-6.65,1.38-7.39,4.72c-.36,1.63-.04,3.34.87,4.73l-.78.51-15.3,10.01c-1.87-2.87-5.71-3.67-8.58-1.8-2.87,1.87-3.67,5.71-1.8,8.58.91,1.4,2.35,2.37,3.98,2.69-.74,3.34,1.38,6.65,4.72,7.39,3.34.74,6.65-1.38,7.39-4.72.36-1.63.05-3.34-.87-4.74"/></g></g></g></g></svg>