<?xml version="1.0" encoding="UTF-8"?><svg id="_レイヤー_2" xmlns="http://www.w3.org/2000/svg" xmlns:xlink="http://www.w3.org/1999/xlink" viewBox="0 0 31.82 40.65"><defs><style>.cls-1{fill:none;}.cls-2{fill:#fff;}.cls-3{fill:#f4ecde;}.cls-4{clip-path:url(#clippath);}</style><clipPath id="clippath"><rect class="cls-1" width="31.82" height="40.65"/></clipPath></defs><g id="_レイヤー_1-2"><g id="_グループ_62"><g class="cls-4"><g id="_グループ_61"><path id="_パス_484" class="cls-2" d="M28.61,12.91h-.26c0-.15,0-.3,0-.46C28.36,5.57,22.78,0,15.9,0,9.03.01,3.46,5.58,3.45,12.45h0c0,.16,0,.31,0,.46h-.26c-1.77,0-3.2,1.43-3.2,3.2H0v21.34c0,1.77,1.43,3.2,3.2,3.2h25.41c1.77,0,3.2-1.43,3.2-3.2h0v-21.33c0-1.77-1.43-3.2-3.2-3.2h0M15.91,4.48c4.66,0,8.43,3.78,8.43,8.44H7.47c0-4.66,3.78-8.44,8.44-8.44h0"/><path id="_パス_485" class="cls-3" d="M23.84,31.05c-5.29,5.96-10.57,5.96-15.86,0-.17-.19-.27-.45-.27-.71v-6.34c0-.59.48-1.06,1.06-1.06h14.26c.59,0,1.06.48,1.06,1.06h0v6.34c0,.26-.09.51-.27.71"/></g></g></g></g></svg>