<?xml version="1.0" encoding="UTF-8"?><svg id="_レイヤー_2" xmlns="http://www.w3.org/2000/svg" xmlns:xlink="http://www.w3.org/1999/xlink" viewBox="0 0 41.86 38.24"><defs><style>.cls-1{fill:none;}.cls-2{fill:#fff;}.cls-3{fill:#f4ecde;}.cls-4{clip-path:url(#clippath);}</style><clipPath id="clippath"><rect class="cls-1" y="0" width="41.86" height="38.23"/></clipPath></defs><g id="_レイヤー_1-2"><g id="_グループ_60"><g class="cls-4"><g id="_グループ_59"><path id="_パス_482" class="cls-2" d="M41.44,18.7L21.85.36c-.52-.48-1.32-.48-1.84,0L.42,18.7c-.53.5-.56,1.34-.06,1.87.25.27.61.42.97.42h5.23c.73,0,1.33.59,1.34,1.32h0v14.37c0,.73.6,1.33,1.34,1.32h23.37c.73,0,1.33-.59,1.34-1.32h0v-14.37c0-.73.6-1.33,1.34-1.32h5.23c.73,0,1.33-.58,1.33-1.31,0-.37-.15-.72-.42-.98"/><path id="_パス_483" class="cls-3" d="M20.93,22.03c-3.83,0-6.93,2.06-6.93,4.6v11.6h13.85v-11.6c0-2.54-3.1-4.6-6.93-4.6"/></g></g></g></g></svg>