<?xml version="1.0" encoding="UTF-8"?><svg id="_レイヤー_2" xmlns="http://www.w3.org/2000/svg" xmlns:xlink="http://www.w3.org/1999/xlink" viewBox="0 0 58.24 54.42"><defs><style>.cls-1,.cls-2,.cls-3{fill:none;}.cls-2{stroke:#fff;stroke-width:3.6px;}.cls-2,.cls-3{stroke-miterlimit:10;}.cls-3{stroke:#f4ecde;stroke-width:5px;}.cls-4{fill:#fff;}.cls-5{fill:#f4ecde;}.cls-6{clip-path:url(#clippath);}</style><clipPath id="clippath"><rect class="cls-1" width="58.24" height="54.42"/></clipPath></defs><g id="_レイヤー_1-2"><g id="_グループ_66"><g class="cls-6"><g id="_グループ_65"><path id="_パス_487" class="cls-4" d="M45.65,10.57H12.02c-1.8,0-3.25,1.46-3.25,3.25v26.58c0,1.8,1.45,3.25,3.25,3.25h33.63c1.8,0,3.25-1.46,3.25-3.25V13.82c0-1.8-1.46-3.25-3.25-3.25M14.01,23.73c0-.75.61-1.35,1.35-1.36h3.89c.75,0,1.35.61,1.35,1.36v3.89c0,.75-.61,1.35-1.35,1.36h-3.89c-.75,0-1.35-.61-1.35-1.36v-3.89ZM20.62,37.62c0,.75-.61,1.35-1.35,1.35h-3.89c-.75,0-1.35-.61-1.35-1.35v-3.89c0-.75.61-1.35,1.35-1.36h3.89c.75,0,1.35.61,1.35,1.36v3.89ZM25.51,23.73c0-.75.61-1.35,1.35-1.36h3.89c.75,0,1.35.61,1.35,1.36v3.89c0,.75-.61,1.35-1.35,1.36h-3.89c-.75,0-1.35-.61-1.35-1.36v-3.89ZM32.12,37.62c0,.75-.61,1.35-1.35,1.35h-3.89c-.75,0-1.35-.61-1.35-1.35v-3.89c0-.75.61-1.35,1.35-1.36h3.89c.75,0,1.35.61,1.35,1.36v3.89ZM37.04,23.73c0-.75.61-1.35,1.35-1.36h3.89c.75,0,1.35.61,1.35,1.36v3.89c0,.75-.61,1.35-1.35,1.36h-3.89c-.75,0-1.35-.61-1.35-1.36v-3.89ZM43.65,37.62c0,.75-.61,1.35-1.35,1.35h-3.89c-.75,0-1.35-.61-1.35-1.35v-3.89c0-.75.61-1.35,1.35-1.36h3.89c.75,0,1.35.61,1.35,1.36v3.89Z"/><path id="_パス_488" class="cls-2" d="M45.65,10.57H12.02c-1.8,0-3.25,1.46-3.25,3.25v26.58c0,1.8,1.45,3.25,3.25,3.25h33.63c1.8,0,3.25-1.46,3.25-3.25V13.82c0-1.8-1.45-3.25-3.25-3.25ZM14.01,23.73c0-.75.61-1.35,1.35-1.36h3.89c.75,0,1.35.61,1.35,1.36v3.89c0,.75-.61,1.35-1.35,1.36h-3.89c-.75,0-1.35-.61-1.35-1.36v-3.89ZM20.62,37.62c0,.75-.61,1.35-1.35,1.35h-3.89c-.75,0-1.35-.61-1.35-1.35v-3.89c0-.75.61-1.35,1.35-1.36h3.89c.75,0,1.35.61,1.35,1.36v3.89ZM25.51,23.73c0-.75.61-1.35,1.35-1.36h3.89c.75,0,1.35.61,1.35,1.36v3.89c0,.75-.61,1.35-1.35,1.36h-3.89c-.75,0-1.35-.61-1.35-1.36v-3.89ZM32.12,37.62c0,.75-.61,1.35-1.35,1.35h-3.89c-.75,0-1.35-.61-1.35-1.35v-3.89c0-.75.61-1.35,1.35-1.36h3.89c.75,0,1.35.61,1.35,1.36v3.89ZM37.04,23.73c0-.75.61-1.35,1.35-1.36h3.89c.75,0,1.35.61,1.35,1.36v3.89c0,.75-.61,1.35-1.35,1.36h-3.89c-.75,0-1.35-.61-1.35-1.36v-3.89ZM43.65,37.62c0,.75-.61,1.35-1.35,1.35h-3.89c-.75,0-1.35-.61-1.35-1.35v-3.89c0-.75.61-1.35,1.35-1.36h3.89c.75,0,1.35.61,1.35,1.36v3.89Z"/><path id="_パス_489" class="cls-5" d="M8.77,19.27v-5.42c0-1.8,1.46-3.25,3.25-3.25h33.63c1.79,0,3.25,1.45,3.25,3.25h0v5.26"/><path id="_パス_490" class="cls-3" d="M16.64,4.54h0c1.44,0,2.6,1.16,2.6,2.6h0v4.89c0,1.44-1.17,2.6-2.6,2.6s-2.6-1.17-2.6-2.6h0v-4.89c0-1.44,1.16-2.6,2.6-2.6,0,0,0,0,.01,0Z"/><path id="_パス_491" class="cls-4" d="M16.89,14.64h-.51c-1.3,0-2.35-1.05-2.35-2.35v-5.4c0-1.3,1.05-2.35,2.35-2.35h.51c1.3,0,2.35,1.05,2.35,2.35v5.4c0,1.3-1.05,2.35-2.35,2.35"/><path id="_パス_492" class="cls-3" d="M41.43,4.54h0c1.44,0,2.6,1.16,2.6,2.6h0v4.89c0,1.44-1.17,2.6-2.6,2.6s-2.6-1.17-2.6-2.6h0v-4.89c0-1.44,1.16-2.6,2.6-2.6,0,0,0,0,.01,0Z"/><path id="_パス_493" class="cls-4" d="M41.69,14.64h-.51c-1.3,0-2.35-1.05-2.35-2.35v-5.4c0-1.3,1.05-2.35,2.35-2.35h.51c1.3,0,2.35,1.05,2.35,2.35v5.4c0,1.3-1.05,2.35-2.35,2.35"/></g></g></g></g></svg>