<?xml version="1.0" encoding="UTF-8"?>
<svg id="_レイヤー_2" data-name="レイヤー 2" xmlns="http://www.w3.org/2000/svg" xmlns:xlink="http://www.w3.org/1999/xlink" viewBox="0 0 469.18 987.64">
  <defs>
    <style>
      .cls-1 {
        fill: #fff;
      }

      .cls-2 {
        fill: #a76c86;
      }

      .cls-3 {
        fill: none;
      }

      .cls-4 {
        clip-path: url(#clippath-1);
      }

      .cls-5 {
        opacity: .4;
      }

      .cls-6 {
        clip-path: url(#clippath);
      }
    </style>
    <clipPath id="clippath">
      <rect class="cls-3" y="478.65" width="334.17" height="508.99"/>
    </clipPath>
    <clipPath id="clippath-1">
      <rect class="cls-3" x="135.01" width="334.17" height="508.99"/>
    </clipPath>
  </defs>
  <g id="_レイヤー_4" data-name="レイヤー 4">
    <g id="_背景" data-name="背景" class="cls-5">
      <rect id="_長方形_2" data-name="長方形 2" class="cls-1" y="478.74" width="334.17" height="508.89"/>
      <g id="_グループ_3" data-name="グループ 3">
        <g class="cls-6">
          <g id="_グループ_2" data-name="グループ 2">
            <path id="_パス_19" data-name="パス 19" class="cls-2" d="M265.91,973c-.37-1.29-.2-2.68.49-3.83.3-.51.49-1.09.56-1.68.03-.25.07-.52.13-.81.12-.82.37-1.62.75-2.36.35-.74.82-1.41,1.39-1.99.48-.51,1.02-.96,1.61-1.33.85-.5,1.81-.75,2.79-.75.72-.07,1.44-.03,2.14.11.53.11,1.04.28,1.53.5.35.16.72.27,1.1.33.21.03.44.08.7.14.78.2,1.53.49,2.25.86,1.44.67,2.12,1.07,2.36,1.18,1.15.59,1.82,1.82,1.72,3.11.18.74.18,1.51,0,2.25-.26.94-.83,1.77-1.61,2.36-.78.5-1.66.83-2.57.97-1.32.32-1.56.18-2.68.54-.68.2-1.33.49-1.93.86-1.12.71-1.25,1.28-2.04,1.93-1.05.8-2.33,1.21-3.65,1.18-2.24-.05-4.23-1.45-5.04-3.54"/>
            <path id="_パス_20" data-name="パス 20" class="cls-2" d="M259.15,966.78c-.46-.83-.85-1.69-1.18-2.57-.32-.75-.36-1.59-.11-2.36.16-.42.46-.76.86-.97.53-.17,1.1-.13,1.61.11.61.21,1.18.5,1.72.86.73.39,1.41.86,2.04,1.39.6.46,1.05,1.1,1.29,1.82.15.77.04,1.56-.32,2.25-.2.57-.58,1.05-1.07,1.39-.63.32-1.34.43-2.04.32-.72-.03-1.22.03-1.61-.32-.53-.55-.93-1.21-1.18-1.93"/>
            <path id="_パス_21" data-name="パス 21" class="cls-2" d="M262.37,957.77c-.26-.83-.4-1.7-.43-2.57-.1-.78-.1-1.58,0-2.36.02-.63.24-1.23.64-1.72.4-.39.94-.62,1.5-.64.63,0,1.24.24,1.72.64.47.35.87.79,1.18,1.29.72.93,1.26,1.99,1.61,3.11.31.82.42,1.7.32,2.57-.08.91-.5,1.75-1.18,2.36-.66.54-1.52.78-2.36.64-.68-.2-1.29-.61-1.72-1.18-.57-.62-1.01-1.35-1.29-2.15"/>
            <path id="_パス_22" data-name="パス 22" class="cls-2" d="M268.8,952.41c-.36-.63-.62-1.32-.75-2.04-.08-.74.07-1.49.43-2.15.22-.44.55-.81.96-1.07,1.25-.74,2.9.1,3.32.32,1.34.74,2.34,1.97,2.79,3.43.45,1.25.45,2.61,0,3.86-.22.7-.67,1.31-1.29,1.72-.74.45-1.66.53-2.47.22-.58-.29-1.06-.74-1.39-1.29-.65-.93-1.19-1.94-1.61-3"/>
            <path id="_パス_23" data-name="パス 23" class="cls-2" d="M278.99,955.95c-.08-.95.06-.75,0-2.36-.06-.57-.03-1.15.11-1.72.09-.45.31-.86.64-1.18.43-.33.96-.48,1.5-.43.67.05,1.31.31,1.82.75.65.51,1.17,1.17,1.5,1.93.43.83.65,1.75.64,2.68.09.96-.18,1.91-.75,2.68-.65.74-1.59,1.16-2.57,1.18-.79.05-1.56-.22-2.15-.75-.56-.58-.63-1.32-.75-2.79"/>
            <path id="_パス_24" data-name="パス 24" class="cls-2" d="M279.49,914.41c-.37-1.29-.2-2.68.49-3.83.3-.51.49-1.09.56-1.68.03-.25.07-.53.13-.81.12-.82.37-1.62.75-2.36.35-.74.82-1.41,1.39-1.99.48-.51,1.02-.96,1.61-1.33.85-.5,1.81-.75,2.79-.75.72-.07,1.44-.03,2.14.11.53.11,1.04.28,1.53.5.35.16.72.27,1.1.33.21.03.44.08.7.14.78.2,1.53.49,2.25.86,1.44.67,2.12,1.07,2.36,1.18,1.15.59,1.82,1.82,1.72,3.11.18.74.18,1.51,0,2.25-.26.94-.83,1.77-1.61,2.36-.78.5-1.66.83-2.57.96-1.32.32-1.56.18-2.68.54-.68.2-1.33.49-1.93.86-1.12.71-1.25,1.28-2.04,1.93-1.05.8-2.33,1.21-3.65,1.18-2.24-.05-4.23-1.45-5.04-3.54"/>
            <path id="_パス_25" data-name="パス 25" class="cls-2" d="M272.74,908.19c-.46-.83-.85-1.69-1.18-2.57-.32-.75-.36-1.59-.11-2.36.16-.42.46-.76.86-.96.53-.17,1.1-.13,1.61.11.61.21,1.18.5,1.72.86.73.39,1.41.86,2.04,1.39.6.46,1.05,1.1,1.29,1.82.15.77.04,1.56-.32,2.25-.2.57-.58,1.05-1.07,1.39-.63.32-1.34.43-2.04.32-.72-.03-1.22.03-1.61-.32-.53-.55-.93-1.21-1.18-1.93"/>
            <path id="_パス_26" data-name="パス 26" class="cls-2" d="M275.95,899.19c-.26-.83-.4-1.7-.43-2.57-.1-.78-.1-1.58,0-2.36.02-.63.24-1.23.64-1.71.4-.39.94-.62,1.5-.64.63,0,1.24.24,1.72.64.47.35.87.79,1.18,1.29.72.93,1.26,1.99,1.61,3.11.31.82.42,1.7.32,2.57-.08.91-.5,1.75-1.18,2.36-.66.54-1.52.78-2.36.64-.68-.2-1.29-.61-1.72-1.18-.57-.62-1.01-1.35-1.29-2.15"/>
            <path id="_パス_27" data-name="パス 27" class="cls-2" d="M282.39,893.82c-.36-.63-.62-1.32-.75-2.04-.08-.74.07-1.49.43-2.15.22-.44.55-.81.96-1.07,1.25-.74,2.9.1,3.32.32,1.34.74,2.34,1.97,2.79,3.43.45,1.25.45,2.61,0,3.86-.22.7-.67,1.31-1.29,1.72-.74.45-1.66.53-2.47.21-.58-.29-1.06-.74-1.39-1.29-.65-.93-1.19-1.94-1.61-3"/>
            <path id="_パス_28" data-name="パス 28" class="cls-2" d="M292.58,897.36c-.08-.95.06-.74,0-2.36-.06-.57-.03-1.15.11-1.72.09-.45.31-.86.64-1.18.43-.33.96-.48,1.5-.43.67.05,1.31.31,1.82.75.65.51,1.17,1.17,1.5,1.93.43.83.65,1.75.64,2.68.09.96-.18,1.91-.75,2.68-.65.74-1.59,1.16-2.57,1.18-.79.05-1.56-.22-2.15-.75-.56-.58-.63-1.32-.75-2.79"/>
            <path id="_パス_29" data-name="パス 29" class="cls-2" d="M218.27,912.2c-.37-1.29-.2-2.68.49-3.83.3-.51.49-1.09.56-1.68.03-.25.08-.53.13-.81.12-.82.37-1.62.75-2.36.35-.74.82-1.41,1.39-1.99.48-.51,1.02-.96,1.61-1.33.85-.5,1.81-.75,2.79-.75.72-.07,1.44-.03,2.14.11.53.11,1.04.28,1.53.5.35.16.72.27,1.1.33.21.03.44.08.7.14.78.2,1.53.49,2.25.86,1.44.67,2.12,1.07,2.36,1.18,1.15.59,1.82,1.82,1.72,3.11.18.74.18,1.51,0,2.25-.26.94-.83,1.77-1.61,2.36-.78.5-1.66.83-2.57.96-1.32.32-1.56.18-2.68.54-.68.2-1.33.49-1.93.86-1.12.71-1.25,1.28-2.04,1.93-1.05.8-2.33,1.21-3.65,1.18-2.24-.05-4.23-1.45-5.04-3.54"/>
            <path id="_パス_30" data-name="パス 30" class="cls-2" d="M211.52,905.98c-.46-.83-.85-1.69-1.18-2.57-.32-.75-.36-1.59-.11-2.36.16-.42.46-.76.86-.96.53-.17,1.1-.13,1.61.11.61.21,1.18.5,1.72.86.73.39,1.41.86,2.04,1.39.6.46,1.05,1.1,1.29,1.82.15.77.04,1.56-.32,2.25-.2.57-.58,1.05-1.07,1.39-.63.32-1.34.43-2.04.32-.72-.03-1.22.03-1.61-.32-.53-.55-.93-1.21-1.18-1.93"/>
            <path id="_パス_31" data-name="パス 31" class="cls-2" d="M214.74,896.97c-.26-.83-.4-1.7-.43-2.57-.1-.78-.1-1.58,0-2.36.02-.63.24-1.23.64-1.72.4-.39.94-.62,1.5-.64.63,0,1.24.24,1.72.64.47.35.87.79,1.18,1.29.72.93,1.26,1.99,1.61,3.11.31.82.42,1.7.32,2.57-.08.91-.5,1.75-1.18,2.36-.66.54-1.52.78-2.36.64-.68-.2-1.29-.61-1.72-1.18-.57-.62-1.01-1.35-1.29-2.14"/>
            <path id="_パス_32" data-name="パス 32" class="cls-2" d="M221.17,891.61c-.37-.63-.62-1.32-.75-2.04-.08-.74.07-1.49.43-2.15.22-.44.55-.81.97-1.07,1.25-.74,2.9.1,3.32.32,1.34.74,2.34,1.97,2.79,3.43.45,1.25.45,2.61,0,3.86-.22.7-.67,1.31-1.29,1.72-.74.45-1.66.53-2.47.21-.58-.29-1.06-.74-1.39-1.29-.65-.93-1.19-1.94-1.61-3"/>
            <path id="_パス_33" data-name="パス 33" class="cls-2" d="M231.36,895.15c-.08-.95.06-.74,0-2.36-.06-.57-.03-1.15.11-1.72.09-.45.31-.86.64-1.18.43-.33.96-.48,1.5-.43.67.05,1.31.31,1.82.75.65.51,1.17,1.17,1.5,1.93.43.83.65,1.75.64,2.68.09.96-.18,1.91-.75,2.68-.65.74-1.59,1.16-2.57,1.18-.79.05-1.56-.22-2.15-.75-.56-.58-.63-1.32-.75-2.79"/>
            <path id="_パス_34" data-name="パス 34" class="cls-2" d="M239.55,851.43c-.37-1.29-.2-2.68.49-3.83.3-.51.49-1.09.56-1.68.03-.25.07-.53.13-.81.12-.82.37-1.62.75-2.36.35-.74.82-1.41,1.39-1.99.48-.51,1.02-.96,1.61-1.33.85-.5,1.81-.75,2.79-.75.72-.07,1.44-.03,2.14.11.53.11,1.04.28,1.53.5.35.16.72.27,1.1.33.21.03.44.08.7.14.78.2,1.53.49,2.25.86,1.44.67,2.12,1.07,2.36,1.18,1.15.6,1.82,1.82,1.71,3.11.18.74.18,1.51,0,2.25-.26.94-.83,1.77-1.61,2.36-.78.5-1.66.83-2.57.96-1.32.32-1.56.18-2.68.54-.68.2-1.33.49-1.93.86-1.12.71-1.25,1.28-2.04,1.93-1.05.8-2.33,1.21-3.65,1.18-2.24-.05-4.23-1.45-5.04-3.54"/>
            <path id="_パス_35" data-name="パス 35" class="cls-2" d="M232.79,845.21c-.46-.83-.85-1.69-1.18-2.57-.32-.75-.36-1.59-.11-2.36.16-.42.46-.76.86-.96.53-.17,1.1-.13,1.61.11.61.21,1.18.5,1.72.86.73.39,1.41.86,2.04,1.39.6.46,1.05,1.1,1.29,1.82.15.77.04,1.56-.32,2.25-.2.57-.58,1.05-1.07,1.39-.63.32-1.34.43-2.04.32-.72-.03-1.22.03-1.61-.32-.53-.55-.93-1.21-1.18-1.93"/>
            <path id="_パス_36" data-name="パス 36" class="cls-2" d="M236.01,836.21c-.26-.83-.4-1.7-.43-2.57-.1-.78-.1-1.58,0-2.36.02-.63.24-1.23.64-1.72.4-.39.94-.62,1.5-.64.63,0,1.24.24,1.72.64.47.35.87.79,1.18,1.29.72.93,1.26,1.99,1.61,3.11.31.82.42,1.7.32,2.57-.08.91-.5,1.75-1.18,2.36-.66.54-1.52.78-2.36.64-.68-.2-1.29-.61-1.72-1.18-.57-.62-1.01-1.35-1.29-2.15"/>
            <path id="_パス_37" data-name="パス 37" class="cls-2" d="M242.45,830.85c-.37-.63-.62-1.32-.75-2.04-.08-.74.07-1.49.43-2.15.22-.44.55-.81.96-1.07,1.25-.74,2.9.1,3.32.32,1.34.74,2.34,1.97,2.79,3.43.45,1.25.45,2.61,0,3.86-.22.7-.67,1.31-1.29,1.72-.74.45-1.66.53-2.47.21-.58-.29-1.06-.74-1.39-1.29-.65-.93-1.19-1.94-1.61-3"/>
            <path id="_パス_38" data-name="パス 38" class="cls-2" d="M252.63,834.39c-.08-.95.06-.74,0-2.36-.06-.57-.03-1.15.11-1.72.09-.45.31-.86.64-1.18.43-.33.96-.48,1.5-.43.67.05,1.31.31,1.82.75.65.51,1.17,1.17,1.5,1.93.43.83.65,1.75.64,2.68.09.96-.18,1.91-.75,2.68-.65.74-1.59,1.16-2.57,1.18-.79.05-1.56-.22-2.15-.75-.56-.58-.63-1.32-.75-2.79"/>
            <path id="_パス_39" data-name="パス 39" class="cls-2" d="M187.16,851.43c-.37-1.29-.2-2.68.49-3.83.3-.51.49-1.09.56-1.68.03-.25.08-.53.13-.81.12-.82.37-1.62.75-2.36.35-.74.82-1.41,1.39-1.99.48-.51,1.02-.96,1.61-1.33.85-.5,1.81-.75,2.79-.75.72-.07,1.44-.03,2.14.11.53.11,1.04.28,1.53.5.35.16.72.27,1.1.33.21.03.44.08.7.14.78.2,1.53.49,2.25.86,1.44.67,2.12,1.07,2.36,1.18,1.15.59,1.82,1.82,1.72,3.11.18.74.18,1.51,0,2.25-.26.94-.83,1.77-1.61,2.36-.78.5-1.66.83-2.57.96-1.32.32-1.56.18-2.68.54-.68.2-1.33.49-1.93.86-1.12.71-1.25,1.28-2.04,1.93-1.05.8-2.33,1.21-3.65,1.18-2.24-.05-4.23-1.45-5.04-3.54"/>
            <path id="_パス_40" data-name="パス 40" class="cls-2" d="M180.4,845.21c-.46-.83-.85-1.69-1.18-2.57-.32-.75-.36-1.59-.11-2.36.16-.42.46-.76.86-.96.53-.17,1.1-.13,1.61.11.61.21,1.18.5,1.72.86.73.39,1.41.86,2.04,1.39.6.46,1.05,1.1,1.29,1.82.15.77.04,1.56-.32,2.25-.2.57-.58,1.05-1.07,1.39-.63.32-1.34.43-2.04.32-.72-.03-1.22.03-1.61-.32-.53-.55-.93-1.21-1.18-1.93"/>
            <path id="_パス_41" data-name="パス 41" class="cls-2" d="M183.62,836.21c-.26-.83-.4-1.7-.43-2.57-.1-.78-.1-1.58,0-2.36.02-.63.24-1.23.64-1.72.4-.39.94-.62,1.5-.64.63,0,1.24.24,1.72.64.47.35.87.79,1.18,1.29.72.93,1.26,1.99,1.61,3.11.31.82.42,1.7.32,2.57-.08.91-.5,1.75-1.18,2.36-.66.54-1.52.78-2.36.64-.68-.2-1.29-.61-1.72-1.18-.57-.62-1.01-1.35-1.29-2.15"/>
            <path id="_パス_42" data-name="パス 42" class="cls-2" d="M190.06,830.85c-.37-.63-.62-1.32-.75-2.04-.08-.74.07-1.49.43-2.15.22-.44.55-.81.97-1.07,1.25-.74,2.9.1,3.32.32,1.34.74,2.34,1.97,2.79,3.43.45,1.25.45,2.61,0,3.86-.22.7-.67,1.31-1.29,1.72-.74.45-1.66.53-2.47.21-.58-.29-1.06-.74-1.39-1.29-.65-.93-1.19-1.94-1.61-3"/>
            <path id="_パス_43" data-name="パス 43" class="cls-2" d="M200.24,834.39c-.08-.95.06-.74,0-2.36-.06-.57-.03-1.15.11-1.72.09-.45.31-.86.64-1.18.43-.33.96-.48,1.5-.43.67.05,1.31.31,1.82.75.65.51,1.17,1.17,1.5,1.93.43.83.65,1.75.64,2.68.09.96-.18,1.91-.75,2.68-.65.74-1.59,1.16-2.57,1.18-.79.05-1.56-.22-2.15-.75-.57-.58-.63-1.32-.75-2.79"/>
            <path id="_パス_44" data-name="パス 44" class="cls-2" d="M200.74,792.85c-.37-1.29-.2-2.68.49-3.83.3-.51.49-1.09.56-1.68.03-.25.08-.53.13-.81.12-.82.37-1.62.75-2.36.35-.74.82-1.41,1.39-1.99.48-.51,1.02-.96,1.61-1.33.85-.5,1.81-.75,2.79-.75.72-.07,1.44-.03,2.14.11.53.11,1.04.28,1.53.5.35.16.72.27,1.1.33.21.03.44.08.7.14.78.2,1.53.49,2.25.86,1.44.67,2.12,1.07,2.36,1.18,1.15.59,1.82,1.82,1.72,3.11.18.74.18,1.51,0,2.25-.26.94-.83,1.77-1.61,2.36-.78.5-1.66.83-2.57.96-1.32.32-1.56.18-2.68.54-.68.2-1.33.49-1.93.86-1.12.71-1.25,1.28-2.04,1.93-1.05.8-2.33,1.21-3.65,1.18-2.24-.05-4.23-1.45-5.04-3.54"/>
            <path id="_パス_45" data-name="パス 45" class="cls-2" d="M193.99,786.63c-.46-.83-.85-1.69-1.18-2.57-.32-.75-.36-1.59-.11-2.36.16-.42.46-.76.86-.96.53-.17,1.1-.13,1.61.11.61.21,1.18.5,1.72.86.73.39,1.41.86,2.04,1.39.6.46,1.05,1.1,1.29,1.82.15.77.04,1.56-.32,2.25-.2.57-.58,1.05-1.07,1.39-.63.32-1.34.43-2.04.32-.72-.03-1.22.03-1.61-.32-.53-.55-.93-1.21-1.18-1.93"/>
            <path id="_パス_46" data-name="パス 46" class="cls-2" d="M197.2,777.62c-.26-.83-.4-1.7-.43-2.57-.1-.78-.1-1.58,0-2.36.02-.63.24-1.23.64-1.71.4-.39.94-.62,1.5-.64.63,0,1.24.24,1.72.64.47.35.87.79,1.18,1.29.72.93,1.26,1.99,1.61,3.11.31.82.42,1.7.32,2.57-.08.91-.5,1.75-1.18,2.36-.66.54-1.52.78-2.36.64-.68-.2-1.29-.61-1.72-1.18-.57-.62-1.01-1.35-1.29-2.15"/>
            <path id="_パス_47" data-name="パス 47" class="cls-2" d="M203.64,772.26c-.37-.63-.62-1.32-.75-2.04-.08-.74.07-1.49.43-2.15.22-.44.55-.81.97-1.07,1.25-.74,2.9.1,3.32.32,1.34.74,2.34,1.97,2.79,3.43.45,1.25.45,2.61,0,3.86-.22.7-.67,1.31-1.29,1.72-.74.45-1.66.53-2.47.21-.58-.29-1.06-.74-1.39-1.29-.65-.93-1.19-1.94-1.61-3"/>
            <path id="_パス_48" data-name="パス 48" class="cls-2" d="M213.83,775.8c-.08-.95.06-.74,0-2.36-.06-.57-.03-1.15.11-1.72.09-.45.31-.86.64-1.18.43-.33.96-.48,1.5-.43.67.05,1.31.31,1.82.75.65.51,1.17,1.17,1.5,1.93.43.83.65,1.75.64,2.68.09.96-.18,1.91-.75,2.68-.65.74-1.59,1.16-2.57,1.18-.79.05-1.56-.22-2.15-.75-.57-.58-.63-1.32-.75-2.79"/>
            <path id="_パス_49" data-name="パス 49" class="cls-2" d="M139.52,790.64c-.37-1.29-.2-2.68.49-3.83.3-.51.49-1.09.56-1.68.03-.25.08-.53.13-.81.12-.82.37-1.62.75-2.36.35-.74.82-1.41,1.39-1.99.48-.51,1.02-.96,1.61-1.33.85-.5,1.81-.75,2.79-.75.72-.07,1.44-.03,2.15.11.53.11,1.04.28,1.53.5.35.16.72.27,1.1.33.21.03.44.08.7.14.78.2,1.53.49,2.25.86,1.44.67,2.12,1.07,2.36,1.18,1.15.59,1.82,1.82,1.72,3.11.18.74.18,1.51,0,2.25-.26.94-.83,1.77-1.61,2.36-.78.5-1.66.83-2.57.96-1.32.32-1.56.18-2.68.54-.68.2-1.33.49-1.93.86-1.12.71-1.25,1.28-2.04,1.93-1.05.8-2.33,1.21-3.65,1.18-2.24-.05-4.23-1.45-5.04-3.54"/>
            <path id="_パス_50" data-name="パス 50" class="cls-2" d="M132.77,784.42c-.46-.83-.85-1.69-1.18-2.57-.32-.75-.36-1.59-.11-2.36.16-.42.46-.76.86-.96.53-.17,1.1-.13,1.61.11.61.21,1.18.5,1.72.86.73.39,1.41.86,2.04,1.39.6.46,1.05,1.1,1.29,1.82.15.77.04,1.56-.32,2.25-.2.57-.58,1.05-1.07,1.39-.63.32-1.34.43-2.04.32-.72-.03-1.22.03-1.61-.32-.53-.55-.93-1.21-1.18-1.93"/>
            <path id="_パス_51" data-name="パス 51" class="cls-2" d="M135.99,775.41c-.26-.83-.4-1.7-.43-2.57-.1-.78-.1-1.58,0-2.36.02-.63.24-1.23.64-1.72.4-.39.94-.62,1.5-.64.63,0,1.24.24,1.72.64.47.35.87.79,1.18,1.29.72.93,1.26,1.99,1.61,3.11.31.82.42,1.7.32,2.57-.08.91-.5,1.75-1.18,2.36-.66.54-1.52.78-2.36.64-.68-.2-1.29-.61-1.72-1.18-.57-.62-1.01-1.35-1.29-2.15"/>
            <path id="_パス_52" data-name="パス 52" class="cls-2" d="M142.42,770.05c-.36-.63-.62-1.32-.75-2.04-.08-.74.07-1.49.43-2.15.22-.44.55-.81.97-1.07,1.25-.74,2.9.1,3.32.32,1.34.74,2.34,1.97,2.79,3.43.45,1.25.45,2.61,0,3.86-.22.7-.67,1.31-1.29,1.72-.74.45-1.66.53-2.47.21-.58-.29-1.06-.74-1.39-1.29-.65-.93-1.19-1.94-1.61-3"/>
            <path id="_パス_53" data-name="パス 53" class="cls-2" d="M152.61,773.59c-.08-.95.06-.74,0-2.36-.06-.57-.03-1.15.11-1.72.09-.45.31-.86.64-1.18.43-.33.96-.48,1.5-.43.67.05,1.31.31,1.82.75.65.51,1.17,1.17,1.5,1.93.43.83.65,1.75.64,2.68.09.96-.18,1.91-.75,2.68-.65.74-1.59,1.16-2.57,1.18-.79.05-1.56-.22-2.15-.75-.57-.58-.63-1.32-.75-2.79"/>
            <path id="_パス_54" data-name="パス 54" class="cls-2" d="M160.8,729.87c-.37-1.29-.2-2.68.49-3.83.3-.51.49-1.09.56-1.68.03-.25.08-.53.13-.81.12-.82.37-1.62.75-2.36.35-.74.82-1.41,1.39-1.99.48-.51,1.02-.96,1.61-1.33.85-.5,1.81-.75,2.79-.75.72-.07,1.44-.03,2.14.11.53.11,1.04.28,1.53.5.35.16.72.27,1.1.33.21.03.44.08.7.14.78.2,1.53.49,2.25.86,1.44.67,2.12,1.07,2.36,1.18,1.15.59,1.82,1.82,1.72,3.11.18.74.18,1.51,0,2.25-.26.94-.83,1.77-1.61,2.36-.78.5-1.66.83-2.57.96-1.32.32-1.56.18-2.68.54-.68.2-1.33.49-1.93.86-1.12.71-1.25,1.28-2.04,1.93-1.05.8-2.33,1.21-3.65,1.18-2.24-.05-4.23-1.45-5.04-3.54"/>
            <path id="_パス_55" data-name="パス 55" class="cls-2" d="M154.04,723.65c-.46-.83-.85-1.69-1.18-2.57-.32-.75-.36-1.59-.11-2.36.16-.42.46-.76.86-.96.53-.17,1.1-.13,1.61.11.61.21,1.18.5,1.72.86.73.39,1.41.86,2.04,1.39.6.46,1.05,1.1,1.29,1.82.15.77.04,1.56-.32,2.25-.2.57-.58,1.05-1.07,1.39-.63.32-1.34.43-2.04.32-.72-.03-1.22.03-1.61-.32-.53-.55-.93-1.21-1.18-1.93"/>
            <path id="_パス_56" data-name="パス 56" class="cls-2" d="M157.26,714.64c-.26-.83-.4-1.7-.43-2.57-.1-.78-.1-1.58,0-2.36.02-.63.24-1.23.64-1.72.4-.39.94-.62,1.5-.64.63,0,1.24.24,1.72.64.47.35.87.79,1.18,1.29.72.93,1.26,1.99,1.61,3.11.31.82.42,1.7.32,2.57-.08.91-.5,1.75-1.18,2.36-.66.54-1.52.78-2.36.64-.68-.2-1.29-.61-1.72-1.18-.57-.62-1.01-1.35-1.29-2.15"/>
            <path id="_パス_57" data-name="パス 57" class="cls-2" d="M163.69,709.28c-.37-.63-.62-1.32-.75-2.04-.08-.74.07-1.49.43-2.15.22-.44.55-.81.97-1.07,1.25-.74,2.9.1,3.32.32,1.34.74,2.34,1.97,2.79,3.43.45,1.25.45,2.61,0,3.86-.22.7-.67,1.31-1.29,1.72-.74.45-1.66.53-2.47.21-.58-.29-1.06-.74-1.39-1.29-.65-.93-1.19-1.94-1.61-3"/>
            <path id="_パス_58" data-name="パス 58" class="cls-2" d="M173.88,712.82c-.08-.95.06-.74,0-2.36-.06-.57-.03-1.15.11-1.72.09-.45.31-.86.64-1.18.43-.33.96-.48,1.5-.43.67.05,1.31.31,1.82.75.65.51,1.17,1.17,1.5,1.93.43.83.65,1.75.64,2.68.09.96-.18,1.91-.75,2.68-.65.74-1.59,1.16-2.57,1.18-.79.05-1.56-.22-2.15-.75-.57-.58-.63-1.32-.75-2.79"/>
            <path id="_パス_59" data-name="パス 59" class="cls-2" d="M108.41,729.87c-.37-1.29-.2-2.68.49-3.83.3-.51.49-1.09.56-1.68.03-.25.08-.53.13-.81.12-.82.37-1.62.75-2.36.35-.74.82-1.41,1.39-1.99.48-.51,1.02-.96,1.61-1.33.85-.5,1.81-.75,2.79-.75.72-.07,1.44-.03,2.14.11.53.11,1.04.28,1.53.5.35.16.72.27,1.1.33.21.03.44.08.7.14.78.2,1.53.49,2.25.86,1.44.67,2.12,1.07,2.36,1.18,1.15.59,1.82,1.82,1.72,3.11.18.74.18,1.51,0,2.25-.26.94-.83,1.77-1.61,2.36-.78.5-1.66.83-2.57.96-1.32.32-1.56.18-2.68.54-.68.2-1.33.49-1.93.86-1.12.71-1.25,1.28-2.04,1.93-1.05.8-2.33,1.21-3.65,1.18-2.24-.05-4.23-1.45-5.04-3.54"/>
            <path id="_パス_60" data-name="パス 60" class="cls-2" d="M101.66,723.65c-.46-.83-.85-1.69-1.18-2.57-.32-.75-.36-1.59-.11-2.36.16-.42.46-.76.86-.96.53-.17,1.1-.13,1.61.11.61.21,1.18.5,1.72.86.73.39,1.41.86,2.04,1.39.6.46,1.05,1.1,1.29,1.82.15.77.04,1.56-.32,2.25-.2.57-.58,1.05-1.07,1.39-.63.32-1.34.43-2.04.32-.73-.03-1.22.03-1.61-.32-.53-.55-.93-1.21-1.18-1.93"/>
            <path id="_パス_61" data-name="パス 61" class="cls-2" d="M104.87,714.64c-.26-.83-.4-1.7-.43-2.57-.1-.78-.1-1.58,0-2.36.02-.63.24-1.23.64-1.72.4-.39.94-.62,1.5-.64.63,0,1.24.24,1.72.64.47.35.87.79,1.18,1.29.72.93,1.26,1.99,1.61,3.11.31.82.42,1.7.32,2.57-.08.91-.5,1.75-1.18,2.36-.66.54-1.52.78-2.36.64-.68-.2-1.29-.61-1.72-1.18-.57-.62-1.01-1.35-1.29-2.15"/>
            <path id="_パス_62" data-name="パス 62" class="cls-2" d="M111.31,709.28c-.37-.63-.62-1.32-.75-2.04-.08-.74.07-1.49.43-2.15.22-.44.55-.81.96-1.07,1.25-.74,2.9.1,3.32.32,1.34.74,2.34,1.97,2.79,3.43.45,1.25.45,2.61,0,3.86-.22.7-.67,1.31-1.29,1.72-.74.45-1.66.53-2.47.21-.58-.29-1.06-.74-1.39-1.29-.65-.93-1.19-1.94-1.61-3"/>
            <path id="_パス_63" data-name="パス 63" class="cls-2" d="M121.49,712.82c-.08-.95.06-.74,0-2.36-.06-.57-.03-1.15.11-1.72.09-.45.31-.86.64-1.18.43-.33.96-.48,1.5-.43.67.05,1.31.31,1.82.75.65.51,1.17,1.17,1.5,1.93.43.83.65,1.75.64,2.68.09.96-.18,1.91-.75,2.68-.65.74-1.59,1.16-2.57,1.18-.79.05-1.56-.22-2.15-.75-.57-.58-.63-1.32-.75-2.79"/>
            <path id="_パス_64" data-name="パス 64" class="cls-2" d="M121.99,671.28c-.37-1.29-.2-2.68.49-3.84.3-.51.49-1.09.56-1.68.03-.25.08-.53.13-.82.12-.82.37-1.62.75-2.36.35-.74.82-1.41,1.39-1.99.48-.51,1.02-.96,1.61-1.33.85-.5,1.81-.75,2.79-.75.72-.07,1.44-.03,2.14.11.53.11,1.04.28,1.53.5.35.16.72.27,1.1.33.21.03.44.08.7.14.78.2,1.53.49,2.25.86,1.44.67,2.12,1.07,2.36,1.18,1.15.59,1.82,1.82,1.72,3.11.18.74.18,1.51,0,2.25-.26.94-.83,1.77-1.61,2.36-.78.5-1.66.83-2.57.97-1.32.32-1.56.18-2.68.54-.68.2-1.33.49-1.93.86-1.12.71-1.25,1.28-2.04,1.93-1.05.8-2.33,1.21-3.65,1.18-2.24-.05-4.23-1.45-5.04-3.54"/>
            <path id="_パス_65" data-name="パス 65" class="cls-2" d="M115.24,665.06c-.46-.83-.85-1.69-1.18-2.57-.32-.75-.36-1.59-.11-2.36.16-.42.46-.76.86-.97.53-.17,1.1-.13,1.61.11.61.21,1.18.5,1.72.86.73.39,1.41.86,2.04,1.39.6.46,1.05,1.1,1.29,1.82.15.77.04,1.56-.32,2.25-.2.57-.58,1.05-1.07,1.39-.63.32-1.34.43-2.04.32-.73-.03-1.22.03-1.61-.32-.53-.55-.93-1.21-1.18-1.93"/>
            <path id="_パス_66" data-name="パス 66" class="cls-2" d="M118.45,656.05c-.26-.83-.4-1.7-.43-2.57-.1-.78-.1-1.58,0-2.36.02-.63.24-1.23.64-1.72.4-.39.94-.62,1.5-.64.63,0,1.24.24,1.72.64.47.35.87.79,1.18,1.29.72.93,1.26,1.99,1.61,3.11.31.82.42,1.7.32,2.57-.08.91-.5,1.75-1.18,2.36-.66.54-1.52.78-2.36.64-.68-.2-1.29-.61-1.72-1.18-.57-.62-1.01-1.35-1.29-2.14"/>
            <path id="_パス_67" data-name="パス 67" class="cls-2" d="M124.89,650.69c-.36-.63-.62-1.32-.75-2.04-.08-.74.07-1.49.43-2.14.22-.44.55-.81.97-1.07,1.25-.74,2.9.1,3.32.32,1.34.74,2.34,1.97,2.79,3.43.45,1.25.45,2.61,0,3.86-.22.7-.67,1.31-1.29,1.72-.74.45-1.66.53-2.47.21-.58-.29-1.06-.74-1.39-1.29-.65-.93-1.19-1.94-1.61-3"/>
            <path id="_パス_68" data-name="パス 68" class="cls-2" d="M135.07,654.23c-.08-.95.06-.74,0-2.36-.06-.57-.03-1.15.11-1.72.09-.45.31-.86.64-1.18.43-.33.96-.48,1.5-.43.67.05,1.31.31,1.82.75.65.51,1.17,1.17,1.5,1.93.43.83.65,1.75.64,2.68.09.96-.18,1.91-.75,2.68-.65.74-1.59,1.16-2.57,1.18-.79.05-1.56-.22-2.15-.75-.57-.58-.63-1.32-.75-2.79"/>
            <path id="_パス_69" data-name="パス 69" class="cls-2" d="M60.77,669.07c-.37-1.29-.2-2.68.49-3.84.3-.51.49-1.09.56-1.68.03-.25.08-.53.13-.82.12-.82.37-1.62.75-2.36.35-.74.82-1.41,1.39-1.99.48-.51,1.02-.96,1.61-1.33.85-.5,1.81-.75,2.79-.75.72-.07,1.44-.03,2.14.11.53.11,1.04.28,1.53.5.35.16.72.27,1.1.33.21.03.44.08.7.14.78.2,1.53.49,2.25.86,1.44.67,2.12,1.07,2.36,1.18,1.15.59,1.82,1.82,1.72,3.11.18.74.18,1.51,0,2.25-.26.94-.83,1.77-1.61,2.36-.78.5-1.66.83-2.57.97-1.32.32-1.56.18-2.68.54-.68.2-1.33.49-1.93.86-1.12.71-1.25,1.28-2.04,1.93-1.05.8-2.33,1.21-3.65,1.18-2.24-.05-4.23-1.45-5.04-3.54"/>
            <path id="_パス_70" data-name="パス 70" class="cls-2" d="M54.02,662.85c-.46-.83-.85-1.69-1.18-2.57-.32-.75-.36-1.59-.11-2.36.16-.42.46-.76.86-.97.53-.17,1.1-.13,1.61.11.61.21,1.18.5,1.72.86.73.39,1.41.86,2.04,1.39.6.46,1.05,1.1,1.29,1.82.15.77.04,1.56-.32,2.25-.2.57-.58,1.05-1.07,1.39-.63.32-1.34.43-2.04.32-.73-.03-1.22.03-1.61-.32-.53-.55-.93-1.21-1.18-1.93"/>
            <path id="_パス_71" data-name="パス 71" class="cls-2" d="M57.24,653.84c-.26-.83-.4-1.7-.43-2.57-.1-.78-.1-1.58,0-2.36.02-.63.24-1.23.64-1.72.4-.39.94-.62,1.5-.64.63,0,1.24.24,1.72.64.47.35.87.79,1.18,1.29.72.93,1.26,1.99,1.61,3.11.31.82.42,1.7.32,2.57-.08.91-.5,1.75-1.18,2.36-.66.54-1.52.78-2.36.64-.68-.2-1.29-.61-1.72-1.18-.57-.62-1.01-1.35-1.29-2.14"/>
            <path id="_パス_72" data-name="パス 72" class="cls-2" d="M63.67,648.48c-.37-.63-.62-1.32-.75-2.04-.08-.74.07-1.49.43-2.14.22-.44.55-.81.96-1.07,1.25-.74,2.9.1,3.32.32,1.34.74,2.34,1.97,2.79,3.43.45,1.25.45,2.61,0,3.86-.22.7-.67,1.31-1.29,1.72-.74.45-1.66.53-2.47.21-.58-.29-1.06-.74-1.39-1.29-.65-.93-1.19-1.94-1.61-3"/>
            <path id="_パス_73" data-name="パス 73" class="cls-2" d="M73.86,652.02c-.08-.95.06-.74,0-2.36-.06-.57-.03-1.15.11-1.72.09-.45.31-.86.64-1.18.43-.33.96-.48,1.5-.43.67.05,1.31.31,1.82.75.65.51,1.17,1.17,1.5,1.93.43.83.65,1.75.64,2.68.09.96-.18,1.91-.75,2.68-.65.74-1.59,1.16-2.57,1.18-.79.05-1.56-.22-2.14-.75-.57-.58-.63-1.32-.75-2.79"/>
            <path id="_パス_74" data-name="パス 74" class="cls-2" d="M82.05,608.3c-.37-1.29-.2-2.68.49-3.84.3-.51.49-1.09.56-1.68.03-.25.08-.53.13-.82.12-.82.37-1.62.75-2.36.35-.74.82-1.41,1.39-1.99.48-.51,1.02-.96,1.61-1.33.85-.5,1.81-.75,2.79-.75.72-.07,1.44-.03,2.14.11.53.11,1.04.28,1.53.5.35.16.72.27,1.1.33.21.03.44.08.7.14.78.2,1.53.49,2.25.86,1.44.67,2.12,1.07,2.36,1.18,1.15.59,1.82,1.82,1.72,3.11.18.74.18,1.51,0,2.25-.26.94-.83,1.77-1.61,2.36-.78.5-1.66.83-2.57.97-1.32.32-1.56.18-2.68.54-.68.2-1.33.49-1.93.86-1.12.71-1.25,1.28-2.04,1.93-1.05.8-2.33,1.21-3.65,1.18-2.24-.05-4.23-1.45-5.04-3.54"/>
            <path id="_パス_75" data-name="パス 75" class="cls-2" d="M75.29,602.08c-.46-.83-.85-1.69-1.18-2.57-.32-.75-.36-1.59-.11-2.36.16-.42.46-.76.86-.97.53-.17,1.1-.13,1.61.11.61.21,1.18.5,1.72.86.73.39,1.41.86,2.04,1.39.6.46,1.05,1.1,1.29,1.82.15.77.04,1.56-.32,2.25-.2.57-.58,1.05-1.07,1.39-.63.32-1.34.43-2.04.32-.73-.03-1.22.03-1.61-.32-.53-.55-.93-1.21-1.18-1.93"/>
            <path id="_パス_76" data-name="パス 76" class="cls-2" d="M78.51,593.08c-.26-.83-.4-1.7-.43-2.57-.1-.78-.1-1.58,0-2.36.02-.63.24-1.23.64-1.72.4-.39.94-.62,1.5-.64.63,0,1.24.24,1.72.64.47.35.87.79,1.18,1.29.72.93,1.26,1.99,1.61,3.11.31.82.42,1.7.32,2.57-.08.91-.5,1.75-1.18,2.36-.66.54-1.52.78-2.36.64-.68-.2-1.29-.61-1.72-1.18-.57-.62-1.01-1.35-1.29-2.14"/>
            <path id="_パス_77" data-name="パス 77" class="cls-2" d="M84.94,587.72c-.37-.63-.62-1.32-.75-2.04-.08-.74.07-1.49.43-2.14.22-.44.55-.81.96-1.07,1.25-.74,2.9.1,3.32.32,1.34.74,2.34,1.97,2.79,3.43.45,1.25.45,2.61,0,3.86-.22.7-.67,1.31-1.29,1.72-.74.45-1.66.53-2.47.21-.58-.29-1.06-.74-1.39-1.29-.65-.93-1.19-1.94-1.61-3"/>
            <path id="_パス_78" data-name="パス 78" class="cls-2" d="M95.13,591.25c-.08-.95.06-.74,0-2.36-.06-.57-.03-1.15.11-1.72.09-.45.31-.86.64-1.18.43-.33.96-.48,1.5-.43.67.05,1.31.31,1.82.75.65.51,1.17,1.17,1.5,1.93.43.83.65,1.75.64,2.68.09.96-.18,1.91-.75,2.68-.65.74-1.59,1.16-2.57,1.18-.79.05-1.56-.22-2.14-.75-.57-.58-.63-1.32-.75-2.79"/>
            <path id="_パス_79" data-name="パス 79" class="cls-2" d="M27.04,608.3c-.37-1.29-.2-2.68.49-3.84.3-.51.49-1.09.56-1.68.03-.25.07-.53.13-.82.12-.82.37-1.62.75-2.36.35-.74.82-1.41,1.39-1.99.48-.51,1.02-.96,1.61-1.33.85-.5,1.81-.75,2.79-.75.72-.07,1.44-.03,2.14.11.53.11,1.04.28,1.53.5.35.16.72.27,1.1.33.21.03.44.08.7.14.78.2,1.53.49,2.25.86,1.44.67,2.12,1.07,2.36,1.18,1.15.59,1.82,1.82,1.72,3.11.18.74.18,1.51,0,2.25-.26.94-.83,1.77-1.61,2.36-.78.5-1.66.83-2.57.97-1.32.32-1.56.18-2.68.54-.68.2-1.33.49-1.93.86-1.12.71-1.25,1.28-2.04,1.93-1.05.8-2.33,1.21-3.65,1.18-2.24-.05-4.23-1.45-5.04-3.54"/>
            <path id="_パス_80" data-name="パス 80" class="cls-2" d="M20.29,602.08c-.46-.83-.85-1.69-1.18-2.57-.32-.75-.36-1.59-.1-2.36.16-.42.46-.76.86-.97.53-.17,1.1-.13,1.61.11.61.21,1.18.5,1.72.86.73.39,1.41.86,2.04,1.39.6.46,1.05,1.1,1.29,1.82.15.77.04,1.56-.32,2.25-.2.57-.58,1.05-1.07,1.39-.63.32-1.34.43-2.04.32-.72-.03-1.22.03-1.61-.32-.53-.55-.93-1.21-1.18-1.93"/>
            <path id="_パス_81" data-name="パス 81" class="cls-2" d="M23.5,593.08c-.26-.83-.4-1.7-.43-2.57-.1-.78-.1-1.58,0-2.36.02-.63.24-1.23.64-1.72.4-.39.94-.62,1.5-.64.63,0,1.24.24,1.72.64.47.35.87.79,1.18,1.29.72.93,1.26,1.99,1.61,3.11.31.82.42,1.7.32,2.57-.08.91-.5,1.75-1.18,2.36-.66.54-1.52.78-2.36.64-.68-.2-1.29-.61-1.72-1.18-.57-.62-1.01-1.35-1.29-2.14"/>
            <path id="_パス_82" data-name="パス 82" class="cls-2" d="M29.94,587.72c-.37-.63-.62-1.32-.75-2.04-.08-.74.07-1.49.43-2.14.22-.44.55-.81.96-1.07,1.25-.74,2.9.1,3.32.32,1.34.74,2.34,1.97,2.79,3.43.45,1.25.45,2.61,0,3.86-.22.7-.67,1.31-1.29,1.72-.74.45-1.66.53-2.47.21-.58-.29-1.06-.74-1.39-1.29-.65-.93-1.19-1.94-1.61-3"/>
            <path id="_パス_83" data-name="パス 83" class="cls-2" d="M40.13,591.25c-.08-.95.06-.74,0-2.36-.06-.57-.03-1.15.11-1.72.09-.45.31-.86.64-1.18.43-.33.96-.48,1.5-.43.67.05,1.31.31,1.82.75.65.51,1.17,1.17,1.5,1.93.43.83.65,1.75.64,2.68.09.96-.18,1.91-.75,2.68-.65.74-1.59,1.16-2.57,1.18-.79.05-1.56-.22-2.15-.75-.57-.58-.63-1.32-.75-2.79"/>
            <path id="_パス_84" data-name="パス 84" class="cls-2" d="M40.62,549.71c-.37-1.29-.2-2.68.49-3.83.3-.51.49-1.09.56-1.68.03-.25.07-.53.13-.82.12-.82.37-1.62.75-2.36.35-.74.82-1.41,1.39-1.99.48-.51,1.02-.96,1.61-1.33.85-.5,1.81-.75,2.79-.75.72-.07,1.44-.03,2.14.11.53.11,1.04.28,1.53.5.35.16.72.27,1.1.33.21.03.44.08.7.14.78.2,1.53.49,2.25.86,1.44.67,2.12,1.07,2.36,1.18,1.15.59,1.82,1.82,1.72,3.11.18.74.18,1.51,0,2.25-.26.94-.83,1.77-1.61,2.36-.78.5-1.66.83-2.57.96-1.32.32-1.56.18-2.68.54-.68.2-1.33.49-1.93.86-1.12.71-1.25,1.28-2.04,1.93-1.05.8-2.33,1.21-3.65,1.18-2.24-.05-4.23-1.45-5.04-3.54"/>
            <path id="_パス_85" data-name="パス 85" class="cls-2" d="M33.87,543.49c-.46-.83-.85-1.69-1.18-2.57-.32-.75-.36-1.59-.11-2.36.16-.42.46-.76.86-.96.53-.17,1.1-.13,1.61.11.61.21,1.18.5,1.72.86.73.39,1.41.86,2.04,1.39.6.46,1.05,1.1,1.29,1.82.15.77.04,1.56-.32,2.25-.2.57-.58,1.05-1.07,1.39-.63.32-1.34.43-2.04.32-.73-.03-1.22.03-1.61-.32-.53-.55-.93-1.21-1.18-1.93"/>
            <path id="_パス_86" data-name="パス 86" class="cls-2" d="M37.09,534.49c-.26-.83-.4-1.7-.43-2.57-.1-.78-.1-1.58,0-2.36.02-.63.24-1.23.64-1.72.4-.39.94-.62,1.5-.64.63,0,1.24.24,1.72.64.47.35.87.79,1.18,1.29.72.93,1.26,1.99,1.61,3.11.31.82.42,1.7.32,2.57-.08.91-.5,1.75-1.18,2.36-.66.54-1.52.78-2.36.64-.68-.2-1.29-.61-1.72-1.18-.57-.62-1.01-1.35-1.29-2.14"/>
            <path id="_パス_87" data-name="パス 87" class="cls-2" d="M43.52,529.13c-.37-.63-.62-1.32-.75-2.04-.08-.74.07-1.49.43-2.14.22-.44.55-.81.96-1.07,1.25-.74,2.9.1,3.32.32,1.34.74,2.34,1.97,2.79,3.43.45,1.25.45,2.61,0,3.86-.22.7-.67,1.31-1.29,1.72-.74.45-1.66.53-2.47.21-.58-.29-1.06-.74-1.39-1.29-.65-.93-1.19-1.94-1.61-3"/>
            <path id="_パス_88" data-name="パス 88" class="cls-2" d="M53.71,532.66c-.08-.95.06-.74,0-2.36-.06-.57-.03-1.15.11-1.72.09-.45.31-.86.64-1.18.43-.33.96-.48,1.5-.43.67.05,1.31.31,1.82.75.65.51,1.17,1.17,1.5,1.93.43.83.65,1.75.64,2.68.09.96-.18,1.91-.75,2.68-.65.74-1.59,1.16-2.57,1.18-.79.05-1.56-.22-2.15-.75-.57-.58-.63-1.32-.75-2.79"/>
            <path id="_パス_89" data-name="パス 89" class="cls-2" d="M19.95,478.65H2.33c-.21.57-.37,1.16-.47,1.76-.06.29-.1.56-.13.81-.07.59-.26,1.16-.56,1.67-.69,1.16-.86,2.54-.49,3.84.81,2.09,2.8,3.49,5.04,3.54,1.31.03,2.6-.38,3.65-1.18.78-.65.92-1.22,2.04-1.93.6-.37,1.25-.66,1.93-.86,1.12-.36,1.36-.22,2.68-.54.92-.13,1.8-.46,2.57-.97.78-.59,1.34-1.42,1.61-2.36.18-.74.18-1.51,0-2.25-.02-.52-.1-1.04-.25-1.55"/>
            <path id="_パス_90" data-name="パス 90" class="cls-2" d="M9.82,546.38c.11-1.29-.57-2.52-1.72-3.11-.24-.11-.92-.51-2.36-1.18-.72-.37-1.47-.65-2.25-.86-.25-.06-.49-.11-.7-.14-.38-.06-.75-.17-1.1-.33-.49-.22-1-.39-1.53-.5-.05,0-.09-.02-.13-.02v13.93c.29-.32.62-.59.99-.82.6-.37,1.25-.66,1.93-.86,1.12-.36,1.36-.22,2.68-.54.92-.13,1.8-.46,2.57-.96.78-.59,1.34-1.42,1.61-2.36.18-.74.18-1.51,0-2.25"/>
          </g>
        </g>
      </g>
    </g>
    <g id="_背景-2" data-name="背景-2" class="cls-5">
      <rect id="_長方形_2-2" data-name="長方形 2-2" class="cls-1" x="458.62" width="10.56" height="492.72"/>
      <g id="_グループ_3-2" data-name="グループ 3-2">
        <g class="cls-4">
          <g id="_グループ_2-2" data-name="グループ 2-2">
            <path id="_パス_19-2" data-name="パス 19-2" class="cls-2" d="M203.27,14.64c.37,1.29.2,2.68-.49,3.84-.3.51-.49,1.09-.56,1.68-.03.25-.08.53-.13.82-.12.82-.37,1.62-.75,2.36-.35.74-.82,1.41-1.39,1.99-.48.51-1.02.96-1.61,1.33-.85.5-1.81.75-2.79.75-.72.07-1.44.03-2.14-.11-.53-.11-1.04-.28-1.53-.5-.35-.16-.72-.27-1.1-.33-.21-.03-.44-.08-.7-.14-.78-.2-1.53-.49-2.25-.86-1.44-.67-2.12-1.07-2.36-1.18-1.15-.59-1.82-1.82-1.72-3.11-.18-.74-.18-1.51,0-2.25.27-.94.83-1.77,1.61-2.36.78-.5,1.66-.83,2.57-.97,1.32-.32,1.56-.18,2.68-.54.68-.2,1.33-.49,1.93-.86,1.12-.71,1.26-1.28,2.04-1.93,1.05-.8,2.33-1.21,3.65-1.18,2.24.05,4.23,1.45,5.04,3.54"/>
            <path id="_パス_20-2" data-name="パス 20-2" class="cls-2" d="M210.02,20.86c.46.83.85,1.69,1.18,2.57.32.75.36,1.59.11,2.36-.16.42-.46.76-.86.96-.53.17-1.1.13-1.61-.11-.61-.21-1.18-.5-1.72-.86-.73-.39-1.41-.86-2.04-1.39-.6-.46-1.05-1.1-1.28-1.83-.15-.76-.04-1.56.32-2.25.2-.57.58-1.05,1.07-1.39.63-.32,1.34-.43,2.04-.32.72.03,1.22-.03,1.61.32.53.55.93,1.21,1.18,1.93"/>
            <path id="_パス_21-2" data-name="パス 21-2" class="cls-2" d="M206.8,29.86c.26.83.4,1.7.43,2.57.1.78.1,1.58,0,2.36-.02.63-.24,1.23-.64,1.72-.4.39-.94.62-1.5.64-.63,0-1.24-.24-1.72-.64-.47-.35-.87-.79-1.18-1.29-.72-.93-1.26-1.99-1.61-3.11-.31-.82-.42-1.7-.32-2.57.08-.91.5-1.75,1.18-2.36.66-.54,1.52-.78,2.36-.64.68.2,1.29.61,1.72,1.18.57.62,1,1.35,1.28,2.14"/>
            <path id="_パス_22-2" data-name="パス 22-2" class="cls-2" d="M200.37,35.22c.37.63.62,1.32.75,2.04.08.74-.07,1.49-.43,2.14-.22.44-.55.8-.96,1.07-1.25.74-2.9-.1-3.32-.32-1.34-.74-2.33-1.97-2.79-3.43-.45-1.25-.45-2.61,0-3.86.22-.7.67-1.31,1.29-1.72.74-.45,1.66-.53,2.47-.21.58.29,1.06.74,1.39,1.29.65.93,1.19,1.94,1.61,3"/>
            <path id="_パス_23-2" data-name="パス 23-2" class="cls-2" d="M190.18,31.69c.08.95-.06.74,0,2.36.06.57.03,1.15-.11,1.71-.09.45-.31.86-.64,1.18-.43.33-.96.48-1.5.43-.67-.05-1.31-.32-1.82-.75-.65-.51-1.17-1.17-1.5-1.93-.43-.83-.65-1.75-.64-2.68-.09-.96.18-1.91.75-2.68.65-.74,1.59-1.16,2.57-1.18.79-.05,1.56.22,2.14.75.57.58.63,1.32.75,2.79"/>
            <path id="_パス_24-2" data-name="パス 24-2" class="cls-2" d="M189.68,73.22c.37,1.29.2,2.68-.49,3.84-.3.51-.49,1.09-.56,1.68-.03.25-.08.53-.13.82-.12.82-.37,1.62-.75,2.36-.35.74-.82,1.41-1.39,1.99-.48.51-1.02.96-1.61,1.33-.85.5-1.81.75-2.79.75-.72.07-1.44.03-2.14-.11-.53-.11-1.04-.28-1.53-.5-.35-.16-.72-.27-1.1-.33-.21-.03-.44-.08-.7-.14-.78-.2-1.53-.49-2.25-.86-1.44-.67-2.12-1.07-2.36-1.18-1.15-.59-1.82-1.82-1.72-3.11-.18-.74-.18-1.51,0-2.25.27-.94.83-1.77,1.61-2.36.78-.5,1.66-.83,2.57-.97,1.32-.32,1.56-.18,2.68-.54.68-.2,1.33-.49,1.93-.86,1.12-.71,1.26-1.28,2.04-1.93,1.05-.8,2.33-1.21,3.65-1.18,2.24.05,4.23,1.45,5.04,3.54"/>
            <path id="_パス_25-2" data-name="パス 25-2" class="cls-2" d="M196.44,79.44c.46.83.85,1.69,1.18,2.57.32.75.36,1.59.11,2.36-.16.42-.46.76-.86.96-.53.17-1.1.13-1.61-.11-.61-.21-1.18-.5-1.72-.86-.73-.39-1.41-.86-2.04-1.39-.6-.46-1.05-1.1-1.28-1.83-.15-.76-.04-1.56.32-2.25.2-.57.58-1.05,1.07-1.39.63-.32,1.34-.43,2.04-.32.72.03,1.22-.03,1.61.32.53.55.93,1.21,1.18,1.93"/>
            <path id="_パス_26-2" data-name="パス 26-2" class="cls-2" d="M193.22,88.45c.26.83.4,1.7.43,2.57.1.78.1,1.58,0,2.36-.02.63-.24,1.23-.64,1.72-.4.39-.94.62-1.5.64-.63,0-1.24-.24-1.72-.64-.47-.35-.87-.79-1.18-1.29-.72-.93-1.26-1.99-1.61-3.11-.31-.82-.42-1.7-.32-2.57.08-.91.5-1.75,1.18-2.36.66-.54,1.52-.78,2.36-.64.68.2,1.29.61,1.72,1.18.57.62,1,1.35,1.28,2.14"/>
            <path id="_パス_27-2" data-name="パス 27-2" class="cls-2" d="M186.79,93.81c.37.63.62,1.32.75,2.04.08.74-.07,1.49-.43,2.14-.22.44-.55.8-.96,1.07-1.25.74-2.9-.1-3.32-.32-1.34-.74-2.34-1.97-2.79-3.43-.45-1.25-.45-2.61,0-3.86.22-.7.67-1.31,1.29-1.72.74-.45,1.66-.53,2.47-.21.58.29,1.06.74,1.39,1.29.65.93,1.19,1.94,1.61,3"/>
            <path id="_パス_28-2" data-name="パス 28-2" class="cls-2" d="M176.6,90.27c.08.95-.06.74,0,2.36.06.57.03,1.15-.11,1.71-.09.45-.31.86-.64,1.18-.43.33-.96.48-1.5.43-.67-.05-1.31-.32-1.82-.75-.65-.51-1.17-1.17-1.5-1.93-.43-.83-.65-1.75-.64-2.68-.09-.96.18-1.91.75-2.68.65-.74,1.59-1.16,2.57-1.18.79-.05,1.56.22,2.14.75.57.58.63,1.32.75,2.79"/>
            <path id="_パス_29-2" data-name="パス 29-2" class="cls-2" d="M250.9,75.44c.37,1.29.2,2.68-.49,3.84-.3.51-.49,1.09-.56,1.68-.03.25-.08.53-.13.82-.12.82-.37,1.62-.75,2.36-.35.74-.82,1.41-1.39,1.99-.48.51-1.02.96-1.61,1.33-.85.5-1.81.75-2.79.75-.72.07-1.44.03-2.14-.11-.53-.11-1.04-.28-1.53-.5-.35-.16-.72-.27-1.1-.33-.21-.03-.44-.08-.7-.14-.78-.2-1.53-.49-2.25-.86-1.44-.67-2.12-1.07-2.36-1.18-1.15-.59-1.82-1.82-1.72-3.11-.18-.74-.18-1.51,0-2.25.27-.94.83-1.77,1.62-2.36.78-.5,1.66-.83,2.57-.97,1.32-.32,1.56-.18,2.68-.54.68-.2,1.33-.49,1.93-.86,1.12-.71,1.26-1.28,2.04-1.93,1.05-.8,2.33-1.21,3.65-1.18,2.24.05,4.23,1.45,5.04,3.54"/>
            <path id="_パス_30-2" data-name="パス 30-2" class="cls-2" d="M257.66,81.65c.46.83.85,1.69,1.18,2.57.32.75.36,1.59.11,2.36-.16.42-.46.76-.86.96-.53.17-1.1.13-1.61-.11-.61-.21-1.18-.5-1.72-.86-.73-.39-1.41-.86-2.04-1.39-.6-.46-1.05-1.1-1.28-1.83-.15-.76-.04-1.56.32-2.25.2-.57.58-1.05,1.07-1.39.63-.32,1.34-.43,2.04-.32.72.03,1.22-.03,1.61.32.53.55.93,1.21,1.18,1.93"/>
            <path id="_パス_31-2" data-name="パス 31-2" class="cls-2" d="M254.44,90.66c.26.83.4,1.7.43,2.57.1.78.1,1.58,0,2.36-.02.63-.24,1.23-.64,1.72-.4.39-.94.62-1.5.64-.63,0-1.24-.24-1.72-.64-.47-.35-.87-.79-1.18-1.29-.72-.93-1.26-1.99-1.61-3.11-.31-.82-.42-1.7-.32-2.57.08-.91.5-1.75,1.18-2.36.66-.54,1.52-.78,2.36-.64.68.2,1.29.61,1.72,1.18.57.62,1,1.35,1.28,2.14"/>
            <path id="_パス_32-2" data-name="パス 32-2" class="cls-2" d="M248.01,96.02c.37.63.62,1.32.75,2.04.08.74-.07,1.49-.43,2.14-.22.44-.55.8-.96,1.07-1.25.74-2.9-.1-3.32-.32-1.34-.74-2.34-1.97-2.79-3.43-.45-1.25-.45-2.61,0-3.86.22-.7.67-1.31,1.29-1.72.74-.45,1.66-.53,2.47-.21.58.29,1.06.74,1.39,1.29.65.93,1.19,1.94,1.61,3"/>
            <path id="_パス_33-2" data-name="パス 33-2" class="cls-2" d="M237.82,92.48c.08.95-.06.74,0,2.36.06.57.03,1.15-.11,1.71-.09.45-.31.86-.64,1.18-.43.33-.96.48-1.5.43-.67-.05-1.31-.32-1.82-.75-.65-.51-1.17-1.17-1.5-1.93-.43-.83-.65-1.75-.64-2.68-.09-.96.18-1.91.75-2.68.65-.74,1.59-1.16,2.57-1.18.79-.05,1.56.23,2.14.75.57.58.63,1.32.75,2.79"/>
            <path id="_パス_34-2" data-name="パス 34-2" class="cls-2" d="M229.63,136.2c.37,1.29.2,2.68-.49,3.84-.3.51-.49,1.09-.56,1.68-.03.25-.08.53-.13.82-.12.82-.37,1.62-.75,2.36-.35.74-.82,1.41-1.39,1.99-.48.51-1.02.96-1.61,1.33-.85.5-1.81.75-2.79.75-.72.07-1.44.03-2.14-.11-.53-.11-1.04-.28-1.53-.5-.35-.16-.72-.27-1.1-.33-.21-.03-.44-.08-.7-.14-.78-.2-1.53-.49-2.25-.86-1.44-.67-2.12-1.07-2.36-1.18-1.15-.59-1.82-1.82-1.72-3.11-.18-.74-.18-1.51,0-2.25.27-.94.83-1.77,1.61-2.36.78-.5,1.66-.83,2.57-.97,1.32-.32,1.56-.18,2.68-.54.68-.2,1.33-.49,1.93-.86,1.12-.71,1.26-1.28,2.04-1.93,1.05-.8,2.33-1.21,3.65-1.18,2.24.05,4.23,1.45,5.04,3.54"/>
            <path id="_パス_35-2" data-name="パス 35-2" class="cls-2" d="M236.38,142.42c.46.83.85,1.69,1.18,2.57.32.75.36,1.59.11,2.36-.16.42-.46.76-.86.96-.53.17-1.1.13-1.61-.11-.61-.21-1.18-.5-1.72-.86-.73-.39-1.41-.86-2.04-1.39-.6-.46-1.05-1.1-1.28-1.83-.15-.76-.04-1.56.32-2.25.2-.57.58-1.05,1.07-1.39.63-.32,1.34-.43,2.04-.32.72.03,1.22-.03,1.61.32.53.55.93,1.21,1.18,1.93"/>
            <path id="_パス_36-2" data-name="パス 36-2" class="cls-2" d="M233.16,151.43c.26.83.4,1.7.43,2.57.1.78.1,1.58,0,2.36-.02.63-.24,1.23-.64,1.72-.4.39-.94.62-1.5.64-.63,0-1.24-.24-1.72-.64-.47-.35-.87-.79-1.18-1.29-.72-.93-1.26-1.99-1.61-3.11-.31-.82-.42-1.7-.32-2.57.08-.91.5-1.75,1.18-2.36.66-.54,1.52-.78,2.36-.64.68.2,1.29.61,1.72,1.18.57.62,1,1.35,1.28,2.14"/>
            <path id="_パス_37-2" data-name="パス 37-2" class="cls-2" d="M226.73,156.79c.37.63.62,1.32.75,2.04.08.74-.07,1.49-.43,2.14-.22.44-.55.8-.96,1.07-1.25.74-2.9-.1-3.32-.32-1.34-.74-2.34-1.97-2.79-3.43-.45-1.25-.45-2.61,0-3.86.22-.7.67-1.31,1.29-1.72.74-.45,1.66-.53,2.47-.21.58.29,1.06.74,1.39,1.29.65.93,1.19,1.94,1.61,3"/>
            <path id="_パス_38-2" data-name="パス 38-2" class="cls-2" d="M216.55,153.25c.08.95-.06.74,0,2.36.06.57.03,1.15-.11,1.71-.09.45-.31.86-.64,1.18-.43.33-.96.48-1.5.43-.67-.05-1.31-.32-1.82-.75-.65-.51-1.17-1.17-1.5-1.93-.43-.83-.65-1.75-.64-2.68-.09-.96.18-1.91.75-2.68.65-.74,1.59-1.16,2.57-1.18.79-.05,1.56.22,2.14.75.57.58.63,1.32.75,2.79"/>
            <path id="_パス_39-2" data-name="パス 39-2" class="cls-2" d="M282.02,136.2c.37,1.29.2,2.68-.49,3.84-.3.51-.49,1.09-.56,1.68-.03.25-.08.53-.13.82-.12.82-.37,1.62-.75,2.36-.35.74-.82,1.41-1.39,1.99-.48.51-1.02.96-1.61,1.33-.85.5-1.81.75-2.79.75-.72.07-1.44.03-2.14-.11-.53-.11-1.04-.28-1.53-.5-.35-.16-.72-.27-1.1-.33-.21-.03-.44-.08-.7-.14-.78-.2-1.53-.49-2.25-.86-1.44-.67-2.12-1.07-2.36-1.18-1.15-.59-1.82-1.82-1.72-3.11-.18-.74-.18-1.51,0-2.25.27-.94.83-1.77,1.61-2.36.78-.5,1.66-.83,2.57-.97,1.32-.32,1.56-.18,2.68-.54.68-.2,1.33-.49,1.93-.86,1.12-.71,1.26-1.28,2.04-1.93,1.05-.8,2.33-1.21,3.65-1.18,2.24.05,4.23,1.45,5.04,3.54"/>
            <path id="_パス_40-2" data-name="パス 40-2" class="cls-2" d="M288.77,142.42c.46.83.85,1.69,1.18,2.57.32.75.36,1.59.11,2.36-.16.42-.46.76-.86.96-.53.17-1.1.13-1.61-.11-.61-.21-1.18-.5-1.72-.86-.73-.39-1.41-.86-2.04-1.39-.6-.46-1.05-1.1-1.28-1.83-.15-.76-.04-1.56.32-2.25.2-.57.58-1.05,1.07-1.39.63-.32,1.34-.43,2.04-.32.72.03,1.22-.03,1.61.32.53.55.93,1.21,1.18,1.93"/>
            <path id="_パス_41-2" data-name="パス 41-2" class="cls-2" d="M285.55,151.43c.26.83.4,1.7.43,2.57.1.78.1,1.58,0,2.36-.02.63-.24,1.23-.64,1.72-.4.39-.94.62-1.5.64-.63,0-1.24-.24-1.72-.64-.47-.35-.87-.79-1.18-1.29-.72-.93-1.26-1.99-1.61-3.11-.31-.82-.42-1.7-.32-2.57.08-.91.5-1.75,1.18-2.36.66-.54,1.52-.78,2.36-.64.68.2,1.29.61,1.72,1.18.57.62,1,1.35,1.28,2.14"/>
            <path id="_パス_42-2" data-name="パス 42-2" class="cls-2" d="M279.12,156.79c.37.63.62,1.32.75,2.04.08.74-.07,1.49-.43,2.14-.22.44-.55.8-.96,1.07-1.25.74-2.9-.1-3.32-.32-1.34-.74-2.34-1.97-2.79-3.43-.45-1.25-.45-2.61,0-3.86.22-.7.67-1.31,1.29-1.72.74-.45,1.66-.53,2.47-.21.58.29,1.06.74,1.39,1.29.65.93,1.19,1.94,1.61,3"/>
            <path id="_パス_43-2" data-name="パス 43-2" class="cls-2" d="M268.94,153.25c.08.95-.06.74,0,2.36.06.57.03,1.15-.11,1.71-.09.45-.31.86-.64,1.18-.43.33-.96.48-1.5.43-.67-.05-1.31-.32-1.82-.75-.65-.51-1.17-1.17-1.5-1.93-.43-.83-.65-1.75-.64-2.68-.09-.96.18-1.91.75-2.68.65-.74,1.59-1.16,2.57-1.18.79-.05,1.56.22,2.14.75.57.58.63,1.32.75,2.79"/>
            <path id="_パス_44-2" data-name="パス 44-2" class="cls-2" d="M268.43,194.79c.37,1.29.2,2.68-.49,3.84-.3.51-.49,1.09-.56,1.68-.03.25-.08.53-.13.82-.12.82-.37,1.62-.75,2.36-.35.74-.82,1.41-1.39,1.99-.48.51-1.02.96-1.61,1.33-.85.5-1.81.75-2.79.75-.72.07-1.44.03-2.14-.11-.53-.11-1.04-.28-1.53-.5-.35-.16-.72-.27-1.1-.33-.21-.03-.44-.08-.7-.14-.78-.2-1.53-.49-2.25-.86-1.44-.67-2.12-1.07-2.36-1.18-1.15-.59-1.82-1.82-1.72-3.11-.18-.74-.18-1.51,0-2.25.27-.94.83-1.77,1.62-2.36.78-.5,1.66-.83,2.57-.97,1.32-.32,1.56-.18,2.68-.54.68-.2,1.33-.49,1.93-.86,1.12-.71,1.26-1.28,2.04-1.93,1.05-.8,2.33-1.21,3.65-1.18,2.24.05,4.23,1.45,5.04,3.54"/>
            <path id="_パス_45-2" data-name="パス 45-2" class="cls-2" d="M275.19,201.01c.46.83.85,1.69,1.18,2.57.32.75.36,1.59.11,2.36-.16.42-.46.76-.86.96-.53.17-1.1.13-1.61-.11-.61-.21-1.18-.5-1.72-.86-.73-.39-1.41-.86-2.04-1.39-.6-.46-1.05-1.1-1.28-1.83-.15-.76-.04-1.56.32-2.25.2-.57.58-1.05,1.07-1.39.63-.32,1.34-.43,2.04-.32.72.03,1.22-.03,1.61.32.53.55.93,1.21,1.18,1.93"/>
            <path id="_パス_46-2" data-name="パス 46-2" class="cls-2" d="M271.97,210.02c.26.83.4,1.7.43,2.57.1.78.1,1.58,0,2.36-.02.63-.24,1.23-.64,1.72-.4.39-.94.62-1.5.64-.63,0-1.24-.24-1.72-.64-.47-.35-.87-.79-1.18-1.29-.72-.93-1.26-1.99-1.61-3.11-.31-.82-.42-1.7-.32-2.57.08-.91.5-1.75,1.18-2.36.66-.54,1.52-.78,2.36-.64.68.2,1.29.61,1.72,1.18.57.62,1,1.35,1.28,2.14"/>
            <path id="_パス_47-2" data-name="パス 47-2" class="cls-2" d="M265.54,215.38c.37.63.62,1.32.75,2.04.08.74-.07,1.49-.43,2.15-.22.44-.55.8-.96,1.07-1.25.74-2.9-.1-3.32-.32-1.34-.74-2.33-1.97-2.79-3.43-.45-1.25-.45-2.61,0-3.86.22-.7.67-1.31,1.29-1.72.74-.45,1.66-.53,2.47-.21.58.29,1.06.74,1.39,1.29.65.93,1.19,1.94,1.61,3"/>
            <path id="_パス_48-2" data-name="パス 48-2" class="cls-2" d="M255.35,211.84c.08.95-.06.74,0,2.36.06.57.03,1.15-.11,1.71-.09.45-.31.86-.64,1.18-.43.33-.96.48-1.5.43-.67-.05-1.31-.32-1.82-.75-.65-.51-1.17-1.17-1.5-1.93-.43-.83-.65-1.75-.64-2.68-.09-.96.18-1.91.75-2.68.65-.74,1.59-1.16,2.57-1.18.79-.05,1.56.22,2.14.75.57.58.63,1.32.75,2.79"/>
            <path id="_パス_49-2" data-name="パス 49-2" class="cls-2" d="M329.65,197c.37,1.29.2,2.68-.49,3.84-.3.51-.49,1.09-.56,1.68-.03.25-.08.53-.13.82-.12.82-.37,1.62-.75,2.36-.35.74-.82,1.41-1.39,1.99-.48.51-1.02.96-1.61,1.33-.85.5-1.81.75-2.79.75-.72.07-1.44.03-2.14-.11-.53-.11-1.04-.28-1.53-.5-.35-.16-.72-.27-1.1-.33-.21-.03-.44-.08-.7-.14-.78-.2-1.53-.49-2.25-.86-1.44-.67-2.12-1.07-2.36-1.18-1.15-.59-1.82-1.82-1.72-3.11-.18-.74-.18-1.51,0-2.25.27-.94.83-1.77,1.62-2.36.78-.5,1.66-.83,2.57-.97,1.32-.32,1.56-.18,2.68-.54.68-.2,1.33-.49,1.93-.86,1.12-.71,1.26-1.28,2.04-1.93,1.05-.8,2.33-1.21,3.65-1.18,2.24.05,4.23,1.45,5.04,3.54"/>
            <path id="_パス_50-2" data-name="パス 50-2" class="cls-2" d="M336.41,203.22c.46.83.85,1.69,1.18,2.57.32.75.36,1.59.11,2.36-.16.42-.46.76-.86.97-.53.17-1.1.13-1.61-.11-.61-.21-1.18-.5-1.72-.86-.73-.39-1.41-.86-2.04-1.39-.6-.46-1.05-1.1-1.28-1.83-.15-.76-.04-1.56.32-2.25.2-.57.58-1.05,1.07-1.39.63-.32,1.34-.43,2.04-.32.72.03,1.22-.03,1.61.32.53.55.93,1.21,1.18,1.93"/>
            <path id="_パス_51-2" data-name="パス 51-2" class="cls-2" d="M333.19,212.23c.26.83.4,1.7.43,2.57.1.78.1,1.58,0,2.36-.02.63-.24,1.23-.64,1.72-.4.39-.94.62-1.5.64-.63,0-1.24-.24-1.72-.64-.47-.35-.87-.79-1.18-1.29-.72-.93-1.26-1.99-1.61-3.11-.31-.82-.42-1.7-.32-2.57.08-.91.5-1.75,1.18-2.36.66-.54,1.52-.78,2.36-.64.68.2,1.29.61,1.72,1.18.57.62,1,1.35,1.28,2.14"/>
            <path id="_パス_52-2" data-name="パス 52-2" class="cls-2" d="M326.76,217.59c.37.63.62,1.32.75,2.04.08.74-.07,1.49-.43,2.14-.22.44-.55.8-.96,1.07-1.25.74-2.9-.1-3.32-.32-1.34-.74-2.34-1.97-2.79-3.43-.45-1.25-.45-2.61,0-3.86.22-.7.67-1.31,1.29-1.72.74-.45,1.66-.53,2.47-.21.58.29,1.06.74,1.39,1.29.65.93,1.19,1.94,1.61,3"/>
            <path id="_パス_53-2" data-name="パス 53-2" class="cls-2" d="M316.57,214.05c.08.95-.06.74,0,2.36.06.57.03,1.15-.11,1.71-.09.45-.31.86-.64,1.18-.43.33-.96.48-1.5.43-.67-.05-1.31-.32-1.82-.75-.65-.51-1.17-1.17-1.5-1.93-.43-.83-.65-1.75-.64-2.68-.09-.96.18-1.91.75-2.68.65-.74,1.59-1.16,2.57-1.18.79-.05,1.56.22,2.14.75.57.58.63,1.32.75,2.79"/>
            <path id="_パス_54-2" data-name="パス 54-2" class="cls-2" d="M308.38,257.77c.37,1.29.2,2.68-.49,3.84-.3.51-.49,1.09-.56,1.68-.03.25-.08.53-.13.82-.12.82-.37,1.62-.75,2.36-.35.74-.82,1.41-1.39,1.99-.48.51-1.02.96-1.61,1.33-.85.5-1.81.75-2.79.75-.72.07-1.44.03-2.14-.11-.53-.11-1.04-.28-1.53-.5-.35-.16-.72-.27-1.1-.33-.21-.03-.44-.08-.7-.14-.78-.2-1.53-.49-2.25-.86-1.44-.67-2.12-1.07-2.36-1.18-1.15-.59-1.82-1.82-1.72-3.11-.18-.74-.18-1.51,0-2.25.27-.94.83-1.77,1.61-2.36.78-.5,1.66-.83,2.57-.97,1.32-.32,1.56-.18,2.68-.54.68-.2,1.33-.49,1.93-.86,1.12-.71,1.26-1.28,2.04-1.93,1.05-.8,2.33-1.21,3.65-1.18,2.24.05,4.23,1.45,5.04,3.54"/>
            <path id="_パス_55-2" data-name="パス 55-2" class="cls-2" d="M315.13,263.99c.46.83.85,1.69,1.18,2.57.32.75.36,1.59.11,2.36-.16.42-.46.76-.86.96-.53.17-1.1.13-1.61-.11-.61-.21-1.18-.5-1.72-.86-.73-.39-1.41-.86-2.04-1.39-.6-.46-1.05-1.1-1.28-1.83-.15-.76-.04-1.56.32-2.25.2-.57.58-1.05,1.07-1.39.63-.32,1.34-.43,2.04-.32.72.03,1.22-.03,1.61.32.53.55.93,1.21,1.18,1.93"/>
            <path id="_パス_56-2" data-name="パス 56-2" class="cls-2" d="M311.91,272.99c.26.83.4,1.7.43,2.57.1.78.1,1.58,0,2.36-.02.63-.24,1.23-.64,1.72-.4.39-.94.62-1.5.64-.63,0-1.24-.24-1.72-.64-.47-.35-.87-.79-1.18-1.29-.72-.93-1.26-1.99-1.61-3.11-.31-.82-.42-1.7-.32-2.57.08-.91.5-1.75,1.18-2.36.66-.54,1.52-.78,2.36-.64.68.2,1.29.61,1.72,1.18.57.62,1,1.35,1.28,2.14"/>
            <path id="_パス_57-2" data-name="パス 57-2" class="cls-2" d="M305.48,278.35c.37.63.62,1.32.75,2.04.08.74-.07,1.49-.43,2.14-.22.44-.55.8-.96,1.07-1.25.74-2.9-.1-3.32-.32-1.34-.74-2.34-1.97-2.79-3.43-.45-1.25-.45-2.61,0-3.86.22-.7.67-1.31,1.29-1.72.74-.45,1.66-.53,2.47-.21.58.29,1.06.74,1.39,1.29.65.93,1.19,1.94,1.61,3"/>
            <path id="_パス_58-2" data-name="パス 58-2" class="cls-2" d="M295.3,274.82c.08.95-.06.74,0,2.36.06.57.03,1.15-.11,1.71-.09.45-.31.86-.64,1.18-.43.33-.96.48-1.5.43-.67-.05-1.31-.32-1.82-.75-.65-.51-1.17-1.17-1.5-1.93-.43-.83-.65-1.75-.64-2.68-.09-.96.18-1.91.75-2.68.65-.74,1.59-1.16,2.57-1.18.79-.05,1.56.22,2.14.75.57.58.63,1.32.75,2.79"/>
            <path id="_パス_59-2" data-name="パス 59-2" class="cls-2" d="M360.77,257.77c.37,1.29.2,2.68-.49,3.84-.3.51-.49,1.09-.56,1.68-.03.25-.08.53-.13.82-.12.82-.37,1.62-.75,2.36-.35.74-.82,1.41-1.39,1.99-.48.51-1.02.96-1.61,1.33-.85.5-1.81.75-2.79.75-.72.07-1.44.03-2.14-.11-.53-.11-1.04-.28-1.53-.5-.35-.16-.72-.27-1.1-.33-.21-.03-.44-.08-.7-.14-.78-.2-1.53-.49-2.25-.86-1.44-.67-2.12-1.07-2.36-1.18-1.15-.59-1.82-1.82-1.72-3.11-.18-.74-.18-1.51,0-2.25.27-.94.83-1.77,1.62-2.36.78-.5,1.66-.83,2.57-.97,1.32-.32,1.56-.18,2.68-.54.68-.2,1.33-.49,1.93-.86,1.12-.71,1.26-1.28,2.04-1.93,1.05-.8,2.33-1.21,3.65-1.18,2.24.05,4.23,1.45,5.04,3.54"/>
            <path id="_パス_60-2" data-name="パス 60-2" class="cls-2" d="M367.52,263.99c.46.83.85,1.69,1.18,2.57.32.75.36,1.59.11,2.36-.16.42-.46.76-.86.96-.53.17-1.1.13-1.61-.11-.61-.21-1.18-.5-1.72-.86-.73-.39-1.41-.86-2.04-1.39-.6-.46-1.05-1.1-1.28-1.83-.15-.76-.04-1.56.32-2.25.2-.57.58-1.05,1.07-1.39.63-.32,1.34-.43,2.04-.32.72.03,1.22-.03,1.61.32.53.55.93,1.21,1.18,1.93"/>
            <path id="_パス_61-2" data-name="パス 61-2" class="cls-2" d="M364.3,272.99c.26.83.4,1.7.43,2.57.1.78.1,1.58,0,2.36-.02.63-.24,1.23-.64,1.72-.4.39-.94.62-1.5.64-.63,0-1.24-.24-1.72-.64-.47-.35-.87-.79-1.18-1.29-.72-.93-1.26-1.99-1.61-3.11-.31-.82-.42-1.7-.32-2.57.08-.91.5-1.75,1.18-2.36.66-.54,1.52-.78,2.36-.64.68.2,1.29.61,1.72,1.18.57.62,1,1.35,1.28,2.14"/>
            <path id="_パス_62-2" data-name="パス 62-2" class="cls-2" d="M357.87,278.35c.37.63.62,1.32.75,2.04.08.74-.07,1.49-.43,2.14-.22.44-.55.8-.96,1.07-1.25.74-2.9-.1-3.32-.32-1.34-.74-2.34-1.97-2.79-3.43-.45-1.25-.45-2.61,0-3.86.22-.7.67-1.31,1.29-1.72.74-.45,1.66-.53,2.47-.21.58.29,1.06.74,1.39,1.29.65.93,1.19,1.94,1.61,3"/>
            <path id="_パス_63-2" data-name="パス 63-2" class="cls-2" d="M347.69,274.82c.08.95-.06.74,0,2.36.06.57.03,1.15-.11,1.71-.09.45-.31.86-.64,1.18-.43.33-.96.48-1.5.43-.67-.05-1.31-.32-1.82-.75-.65-.51-1.17-1.17-1.5-1.93-.43-.83-.65-1.75-.64-2.68-.09-.96.18-1.91.75-2.68.65-.74,1.59-1.16,2.57-1.18.79-.05,1.56.22,2.14.75.57.58.63,1.32.75,2.79"/>
            <path id="_パス_64-2" data-name="パス 64-2" class="cls-2" d="M347.18,316.35c.37,1.29.2,2.68-.49,3.84-.3.51-.49,1.09-.56,1.68-.03.25-.08.53-.13.82-.12.82-.37,1.62-.75,2.36-.35.74-.82,1.41-1.39,1.99-.48.51-1.02.96-1.61,1.33-.85.5-1.81.75-2.79.75-.72.07-1.44.03-2.14-.11-.53-.11-1.04-.28-1.53-.5-.35-.16-.72-.27-1.1-.33-.21-.03-.44-.08-.7-.14-.78-.2-1.53-.49-2.25-.86-1.44-.67-2.12-1.07-2.36-1.18-1.15-.59-1.82-1.82-1.72-3.11-.18-.74-.18-1.51,0-2.25.27-.94.83-1.77,1.62-2.36.78-.5,1.66-.83,2.57-.97,1.32-.32,1.56-.18,2.68-.54.68-.2,1.33-.49,1.93-.86,1.12-.71,1.26-1.28,2.04-1.93,1.05-.8,2.33-1.21,3.65-1.18,2.24.05,4.23,1.45,5.04,3.54"/>
            <path id="_パス_65-2" data-name="パス 65-2" class="cls-2" d="M353.94,322.57c.46.83.85,1.69,1.18,2.57.32.75.36,1.59.11,2.36-.16.42-.46.76-.86.96-.53.17-1.1.13-1.61-.11-.61-.21-1.18-.5-1.72-.86-.73-.39-1.41-.86-2.04-1.39-.6-.46-1.05-1.1-1.28-1.83-.15-.76-.04-1.56.32-2.25.2-.57.58-1.05,1.07-1.39.63-.32,1.34-.43,2.04-.32.72.03,1.22-.03,1.61.32.53.55.93,1.21,1.18,1.93"/>
            <path id="_パス_66-2" data-name="パス 66-2" class="cls-2" d="M350.72,331.58c.26.83.4,1.7.43,2.57.1.78.1,1.58,0,2.36-.02.63-.24,1.23-.64,1.72-.4.39-.94.62-1.5.64-.63,0-1.24-.24-1.72-.64-.47-.35-.87-.79-1.18-1.29-.72-.93-1.26-1.99-1.61-3.11-.31-.82-.42-1.7-.32-2.57.08-.91.5-1.75,1.18-2.36.66-.54,1.52-.78,2.36-.64.68.2,1.29.61,1.72,1.18.57.62,1,1.35,1.28,2.14"/>
            <path id="_パス_67-2" data-name="パス 67-2" class="cls-2" d="M344.29,336.94c.37.63.62,1.32.75,2.04.08.74-.07,1.49-.43,2.14-.22.44-.55.8-.96,1.07-1.25.74-2.9-.1-3.32-.32-1.34-.74-2.34-1.97-2.79-3.43-.45-1.25-.45-2.61,0-3.86.22-.7.67-1.31,1.29-1.72.74-.45,1.66-.53,2.47-.21.58.29,1.06.74,1.39,1.29.65.93,1.19,1.94,1.61,3"/>
            <path id="_パス_68-2" data-name="パス 68-2" class="cls-2" d="M334.1,333.4c.08.95-.06.74,0,2.36.06.57.03,1.15-.11,1.71-.09.45-.31.86-.64,1.18-.43.33-.96.48-1.5.43-.67-.05-1.31-.32-1.82-.75-.65-.51-1.17-1.17-1.5-1.93-.43-.83-.65-1.75-.64-2.68-.09-.96.18-1.91.75-2.68.65-.74,1.59-1.16,2.57-1.18.79-.05,1.56.22,2.14.75.57.58.63,1.32.75,2.79"/>
            <path id="_パス_69-2" data-name="パス 69-2" class="cls-2" d="M408.4,318.57c.37,1.29.2,2.68-.49,3.84-.3.51-.49,1.09-.56,1.68-.03.25-.08.53-.13.82-.12.82-.37,1.62-.75,2.36-.35.74-.82,1.41-1.39,1.99-.48.51-1.02.96-1.61,1.33-.85.5-1.81.75-2.79.75-.72.07-1.44.03-2.14-.11-.53-.11-1.04-.28-1.53-.5-.35-.16-.72-.27-1.1-.33-.21-.03-.44-.08-.7-.14-.78-.2-1.53-.49-2.25-.86-1.44-.67-2.12-1.07-2.36-1.18-1.15-.59-1.82-1.82-1.72-3.11-.18-.74-.18-1.51,0-2.25.27-.94.83-1.77,1.61-2.36.78-.5,1.66-.83,2.57-.97,1.32-.32,1.56-.18,2.68-.54.68-.2,1.33-.49,1.93-.86,1.12-.71,1.26-1.28,2.04-1.93,1.05-.8,2.33-1.21,3.65-1.18,2.24.05,4.23,1.45,5.04,3.54"/>
            <path id="_パス_70-2" data-name="パス 70-2" class="cls-2" d="M415.16,324.78c.46.83.85,1.69,1.18,2.57.32.75.36,1.59.11,2.36-.16.42-.46.76-.86.96-.53.17-1.1.13-1.61-.11-.61-.21-1.18-.5-1.72-.86-.73-.39-1.41-.86-2.04-1.39-.6-.46-1.05-1.1-1.28-1.83-.15-.76-.04-1.56.32-2.25.2-.57.58-1.05,1.07-1.39.63-.32,1.34-.43,2.04-.32.72.03,1.22-.03,1.61.32.53.55.93,1.21,1.18,1.93"/>
            <path id="_パス_71-2" data-name="パス 71-2" class="cls-2" d="M411.94,333.79c.26.83.4,1.7.43,2.57.1.78.1,1.58,0,2.36-.02.63-.24,1.23-.64,1.72-.4.39-.94.62-1.5.64-.63,0-1.24-.24-1.72-.64-.47-.35-.87-.79-1.18-1.29-.72-.93-1.26-1.99-1.61-3.11-.31-.82-.42-1.7-.32-2.57.08-.91.5-1.75,1.18-2.36.66-.54,1.52-.78,2.36-.64.68.2,1.29.61,1.71,1.18.57.62,1,1.35,1.28,2.14"/>
            <path id="_パス_72-2" data-name="パス 72-2" class="cls-2" d="M405.51,339.15c.37.63.62,1.32.75,2.04.08.74-.07,1.49-.43,2.14-.22.44-.55.8-.96,1.07-1.25.74-2.9-.1-3.32-.32-1.34-.74-2.34-1.97-2.79-3.43-.45-1.25-.45-2.61,0-3.86.22-.7.67-1.31,1.29-1.72.74-.45,1.66-.53,2.47-.21.58.29,1.06.74,1.39,1.29.65.93,1.19,1.94,1.61,3"/>
            <path id="_パス_73-2" data-name="パス 73-2" class="cls-2" d="M395.32,335.62c.08.95-.06.74,0,2.36.06.57.03,1.15-.11,1.71-.09.45-.31.86-.64,1.18-.43.33-.96.48-1.5.43-.67-.05-1.31-.32-1.82-.75-.65-.51-1.17-1.17-1.5-1.93-.43-.83-.65-1.75-.64-2.68-.09-.96.18-1.91.75-2.68.65-.74,1.59-1.16,2.57-1.18.79-.05,1.56.22,2.14.75.57.58.63,1.32.75,2.79"/>
            <path id="_パス_74-2" data-name="パス 74-2" class="cls-2" d="M387.13,379.33c.37,1.29.2,2.68-.49,3.84-.3.51-.49,1.09-.56,1.68-.03.25-.08.53-.13.82-.12.82-.37,1.62-.75,2.36-.35.74-.82,1.41-1.39,1.99-.48.51-1.02.96-1.61,1.33-.85.5-1.81.75-2.79.75-.72.07-1.44.03-2.14-.11-.53-.11-1.04-.28-1.53-.5-.35-.16-.72-.27-1.1-.33-.21-.03-.44-.08-.7-.14-.78-.2-1.53-.49-2.25-.86-1.44-.67-2.12-1.07-2.36-1.18-1.15-.59-1.82-1.82-1.72-3.11-.18-.74-.18-1.51,0-2.25.27-.94.83-1.77,1.61-2.36.78-.5,1.66-.83,2.57-.97,1.32-.32,1.56-.18,2.68-.54.68-.2,1.33-.49,1.93-.86,1.12-.71,1.26-1.28,2.04-1.93,1.05-.8,2.33-1.21,3.65-1.18,2.24.05,4.23,1.45,5.04,3.54"/>
            <path id="_パス_75-2" data-name="パス 75-2" class="cls-2" d="M393.88,385.55c.46.83.85,1.69,1.18,2.57.32.75.36,1.59.11,2.36-.16.42-.46.76-.86.96-.53.17-1.1.13-1.61-.11-.61-.21-1.18-.5-1.72-.86-.73-.39-1.41-.86-2.04-1.39-.6-.46-1.05-1.1-1.28-1.83-.15-.76-.04-1.56.32-2.25.2-.57.58-1.05,1.07-1.39.63-.32,1.34-.43,2.04-.32.72.03,1.22-.03,1.61.32.53.55.93,1.21,1.18,1.93"/>
            <path id="_パス_76-2" data-name="パス 76-2" class="cls-2" d="M390.66,394.56c.26.83.4,1.7.43,2.57.1.78.1,1.58,0,2.36-.02.63-.24,1.23-.64,1.72-.4.39-.94.62-1.5.64-.63,0-1.24-.24-1.72-.64-.47-.35-.87-.79-1.18-1.29-.72-.93-1.26-1.99-1.61-3.11-.31-.82-.42-1.7-.32-2.57.08-.91.5-1.75,1.18-2.36.66-.54,1.52-.78,2.36-.64.68.2,1.29.61,1.72,1.18.57.62,1,1.35,1.28,2.14"/>
            <path id="_パス_77-2" data-name="パス 77-2" class="cls-2" d="M384.23,399.92c.37.63.62,1.32.75,2.04.08.74-.07,1.49-.43,2.14-.22.44-.55.8-.96,1.07-1.25.74-2.9-.1-3.32-.32-1.34-.74-2.34-1.97-2.79-3.43-.45-1.25-.45-2.61,0-3.86.22-.7.67-1.31,1.29-1.72.74-.45,1.66-.53,2.47-.21.58.29,1.06.74,1.39,1.29.65.93,1.19,1.94,1.61,3"/>
            <path id="_パス_78-2" data-name="パス 78-2" class="cls-2" d="M374.05,396.38c.08.95-.06.74,0,2.36.06.57.03,1.15-.11,1.71-.09.45-.31.86-.64,1.18-.43.33-.96.48-1.5.43-.67-.05-1.31-.32-1.82-.75-.65-.51-1.17-1.17-1.5-1.93-.43-.83-.65-1.75-.64-2.68-.09-.96.18-1.91.75-2.68.65-.74,1.59-1.16,2.57-1.18.79-.05,1.56.22,2.14.75.57.58.63,1.32.75,2.79"/>
            <path id="_パス_79-2" data-name="パス 79-2" class="cls-2" d="M442.13,379.33c.37,1.29.2,2.68-.49,3.84-.3.51-.49,1.09-.56,1.68-.03.25-.08.53-.13.82-.12.82-.37,1.62-.75,2.36-.35.74-.82,1.41-1.39,1.99-.48.51-1.02.96-1.61,1.33-.85.5-1.81.75-2.79.75-.72.07-1.44.03-2.14-.11-.53-.11-1.04-.28-1.53-.5-.35-.16-.72-.27-1.1-.33-.21-.03-.44-.08-.7-.14-.78-.2-1.53-.49-2.25-.86-1.44-.67-2.12-1.07-2.36-1.18-1.15-.59-1.82-1.82-1.72-3.11-.18-.74-.18-1.51,0-2.25.27-.94.83-1.77,1.61-2.36.78-.5,1.66-.83,2.57-.97,1.32-.32,1.56-.18,2.68-.54.68-.2,1.33-.49,1.93-.86,1.12-.71,1.26-1.28,2.04-1.93,1.05-.8,2.33-1.21,3.65-1.18,2.24.05,4.23,1.45,5.04,3.54"/>
            <path id="_パス_80-2" data-name="パス 80-2" class="cls-2" d="M448.89,385.55c.46.83.85,1.69,1.18,2.57.32.75.36,1.59.11,2.36-.16.42-.46.76-.86.96-.53.17-1.1.13-1.61-.11-.61-.21-1.18-.5-1.72-.86-.73-.39-1.41-.86-2.04-1.39-.6-.46-1.05-1.1-1.28-1.83-.15-.76-.04-1.56.32-2.25.2-.57.58-1.05,1.07-1.39.63-.32,1.34-.43,2.04-.32.72.03,1.22-.03,1.61.32.53.55.93,1.21,1.18,1.93"/>
            <path id="_パス_81-2" data-name="パス 81-2" class="cls-2" d="M445.67,394.56c.26.83.4,1.7.43,2.57.1.78.1,1.58,0,2.36-.02.63-.24,1.23-.64,1.72-.4.39-.94.62-1.5.64-.63,0-1.24-.24-1.72-.64-.47-.35-.87-.79-1.18-1.29-.72-.93-1.26-1.99-1.61-3.11-.31-.82-.42-1.7-.32-2.57.08-.91.5-1.75,1.18-2.36.66-.54,1.52-.78,2.36-.64.68.2,1.29.61,1.72,1.18.57.62,1,1.35,1.28,2.14"/>
            <path id="_パス_82-2" data-name="パス 82-2" class="cls-2" d="M439.24,399.92c.37.63.62,1.32.75,2.04.08.74-.07,1.49-.43,2.14-.22.44-.55.8-.96,1.07-1.25.74-2.9-.1-3.32-.32-1.34-.74-2.34-1.97-2.79-3.43-.45-1.25-.45-2.61,0-3.86.22-.7.67-1.31,1.29-1.72.74-.45,1.66-.53,2.47-.21.58.29,1.06.74,1.39,1.29.65.93,1.19,1.94,1.61,3"/>
            <path id="_パス_83-2" data-name="パス 83-2" class="cls-2" d="M429.05,396.38c.08.95-.06.74,0,2.36.06.57.03,1.15-.11,1.71-.09.45-.31.86-.64,1.18-.43.33-.96.48-1.5.43-.67-.05-1.31-.32-1.82-.75-.65-.51-1.17-1.17-1.5-1.93-.43-.83-.65-1.75-.64-2.68-.09-.96.18-1.91.75-2.68.65-.74,1.59-1.16,2.57-1.18.79-.05,1.56.22,2.14.75.57.58.63,1.32.75,2.79"/>
            <path id="_パス_84-2" data-name="パス 84-2" class="cls-2" d="M428.55,437.92c.37,1.29.2,2.68-.49,3.84-.3.51-.49,1.09-.56,1.68-.03.25-.08.53-.13.82-.12.82-.37,1.62-.75,2.36-.35.74-.82,1.41-1.39,1.99-.48.51-1.02.96-1.61,1.33-.85.5-1.81.75-2.79.75-.72.07-1.44.03-2.14-.11-.53-.11-1.04-.28-1.53-.5-.35-.16-.72-.27-1.1-.33-.21-.03-.44-.08-.7-.14-.78-.2-1.53-.49-2.25-.86-1.44-.67-2.12-1.07-2.36-1.18-1.15-.59-1.82-1.82-1.72-3.11-.18-.74-.18-1.51,0-2.25.27-.94.83-1.77,1.61-2.36.78-.5,1.66-.83,2.57-.97,1.32-.32,1.56-.18,2.68-.54.68-.2,1.33-.49,1.93-.86,1.12-.71,1.26-1.28,2.04-1.93,1.05-.8,2.33-1.21,3.65-1.18,2.24.05,4.23,1.45,5.04,3.54"/>
            <path id="_パス_85-2" data-name="パス 85-2" class="cls-2" d="M435.31,444.14c.46.83.85,1.69,1.18,2.57.32.75.36,1.59.11,2.36-.16.42-.46.76-.86.96-.53.17-1.1.13-1.61-.11-.61-.21-1.18-.5-1.72-.86-.73-.39-1.41-.86-2.04-1.39-.6-.46-1.05-1.1-1.28-1.83-.15-.76-.04-1.56.32-2.25.2-.57.58-1.05,1.07-1.39.63-.32,1.34-.43,2.04-.32.72.03,1.22-.03,1.61.32.53.55.93,1.21,1.18,1.93"/>
            <path id="_パス_86-2" data-name="パス 86-2" class="cls-2" d="M432.09,453.15c.26.83.4,1.7.43,2.57.1.78.1,1.58,0,2.36-.02.63-.24,1.23-.64,1.72-.4.39-.94.62-1.5.64-.63,0-1.24-.24-1.72-.64-.47-.35-.87-.79-1.18-1.29-.72-.93-1.26-1.99-1.61-3.11-.31-.82-.42-1.7-.32-2.57.08-.91.5-1.75,1.18-2.36.66-.54,1.52-.78,2.36-.64.68.2,1.29.61,1.72,1.18.57.62,1,1.35,1.28,2.14"/>
            <path id="_パス_87-2" data-name="パス 87-2" class="cls-2" d="M425.66,458.51c.37.63.62,1.32.75,2.04.08.74-.07,1.49-.43,2.14-.22.44-.55.8-.96,1.07-1.25.74-2.9-.1-3.32-.32-1.34-.74-2.34-1.97-2.79-3.43-.45-1.25-.45-2.61,0-3.86.22-.7.67-1.31,1.29-1.72.74-.45,1.66-.53,2.47-.21.58.29,1.06.74,1.39,1.29.65.93,1.19,1.94,1.61,3"/>
            <path id="_パス_88-2" data-name="パス 88-2" class="cls-2" d="M415.47,454.97c.08.95-.06.74,0,2.36.06.57.03,1.15-.11,1.71-.09.45-.31.86-.64,1.18-.43.33-.96.48-1.5.43-.67-.05-1.31-.32-1.82-.75-.65-.51-1.17-1.17-1.5-1.93-.43-.83-.65-1.75-.64-2.68-.09-.96.18-1.91.75-2.68.65-.74,1.59-1.16,2.57-1.18.79-.05,1.56.22,2.14.75.57.58.63,1.32.75,2.79"/>
            <path id="_パス_89-2" data-name="パス 89-2" class="cls-2" d="M449.23,508.99h17.62c.21-.57.37-1.16.47-1.76.06-.29.1-.56.13-.81.07-.59.26-1.16.56-1.68.69-1.16.86-2.54.49-3.83-.81-2.09-2.8-3.49-5.04-3.54-1.31-.03-2.6.38-3.65,1.18-.78.65-.92,1.22-2.04,1.93-.6.37-1.25.66-1.93.86-1.12.36-1.36.22-2.68.54-.92.13-1.8.46-2.58.97-.78.59-1.34,1.42-1.61,2.36-.18.74-.18,1.51,0,2.25.02.52.1,1.04.25,1.55"/>
            <path id="_パス_90-2" data-name="パス 90-2" class="cls-2" d="M459.35,441.25c-.11,1.29.57,2.52,1.72,3.11.24.11.92.51,2.36,1.18.72.37,1.47.65,2.25.86.26.06.49.11.7.14.38.06.75.17,1.1.33.49.22,1,.39,1.53.5.05,0,.09.01.13.02v-13.92c-.29.32-.62.59-.99.82-.6.37-1.25.66-1.93.86-1.12.36-1.36.22-2.68.54-.92.13-1.8.46-2.57.97-.78.59-1.35,1.42-1.61,2.36-.18.74-.18,1.51,0,2.25"/>
          </g>
        </g>
      </g>
    </g>
  </g>
</svg>