<?xml version="1.0" encoding="UTF-8"?>
<svg id="_レイヤー_2" data-name="レイヤー 2" xmlns="http://www.w3.org/2000/svg" xmlns:xlink="http://www.w3.org/1999/xlink" viewBox="0 0 302.97 60.69">
  <defs>
    <style>
      .cls-1 {
        fill: #a76c86;
      }

      .cls-2 {
        fill: #e1dacc;
      }

      .cls-3, .cls-4 {
        fill: none;
      }

      .cls-5 {
        clip-path: url(#clippath-1);
      }

      .cls-6 {
        fill: #684e2d;
      }

      .cls-4 {
        stroke: #fff;
        stroke-miterlimit: 10;
        stroke-width: 18px;
      }

      .cls-7 {
        fill: #968375;
      }

      .cls-8 {
        fill: #d7b4aa;
      }

      .cls-9 {
        clip-path: url(#clippath);
      }
    </style>
    <clipPath id="clippath">
      <rect class="cls-3" width="302.97" height="60.69"/>
    </clipPath>
    <clipPath id="clippath-1">
      <rect class="cls-3" x="6.49" y="4.8" width="289.37" height="49.26"/>
    </clipPath>
  </defs>
  <g id="_レイヤー_4" data-name="レイヤー 4">
    <g id="_ロゴ" data-name="ロゴ">
      <g id="_グループ_5" data-name="グループ 5">
        <g class="cls-9">
          <g id="_グループ_4" data-name="グループ 4">
            <path id="_パス_91" data-name="パス 91" class="cls-6" d="M4.6,8.14h11.02v26.95H4.6V8.14ZM22.77,49.21c5.77-8.35,8.87-17.13,8.87-27.46v-13.6h11.02v17.04c0,10.59-4.05,19.89-12.66,28.84l-7.23-4.82Z"/>
            <path id="_パス_92" data-name="パス 92" class="cls-4" d="M4.6,8.14h11.02v26.95H4.6V8.14ZM22.77,49.21c5.77-8.35,8.87-17.13,8.87-27.46v-13.6h11.02v17.04c0,10.59-4.05,19.89-12.66,28.84l-7.23-4.82Z"/>
            <path id="_パス_93" data-name="パス 93" class="cls-8" d="M68.49,44.22c12.48-8.26,20.66-15.67,31.08-28.84l9.38,7.15c-9.04,12.38-20.1,23.15-32.72,31.86l-7.75-10.16Z"/>
            <path id="_パス_94" data-name="パス 94" class="cls-4" d="M68.49,44.22c12.48-8.26,20.66-15.67,31.08-28.84l9.38,7.15c-9.04,12.38-20.1,23.15-32.72,31.86l-7.75-10.16Z"/>
            <path id="_パス_95" data-name="パス 95" class="cls-2" d="M142.27,8.75l25.57-.09c-1.2,20.92-3.44,33.32-7.4,45.2l-10.16-2.24c2.5-11.36,3.36-21.44,3.96-32.72l-13.69.09-3.19,18.42-11.19-.95,2.58-31.6,14.03.86-.52,3.02Z"/>
            <path id="_パス_96" data-name="パス 96" class="cls-4" d="M142.27,8.75l25.57-.09c-1.2,20.92-3.44,33.32-7.4,45.2l-10.16-2.24c2.5-11.36,3.36-21.44,3.96-32.72l-13.69.09-3.19,18.42-11.19-.95,2.58-31.6,14.03.86-.52,3.02Z"/>
            <path id="_パス_97" data-name="パス 97" class="cls-7" d="M203.14,48.43c5.34-8.35,9.56-18.25,13.35-29.44l-20.15.09-.09,10.59h-10.85l-.35-20.83,45.2-.09-.17,12.4c-4.05,12.91-10.42,24.37-18.25,32.8l-8.69-5.51Z"/>
            <path id="_パス_98" data-name="パス 98" class="cls-4" d="M203.14,48.43c5.34-8.35,9.56-18.25,13.35-29.44l-20.15.09-.09,10.59h-10.85l-.35-20.83,45.2-.09-.17,12.4c-4.05,12.91-10.42,24.37-18.25,32.8l-8.69-5.51Z"/>
            <path id="_パス_99" data-name="パス 99" class="cls-8" d="M256.09,44.22c12.48-8.26,20.66-15.67,31.08-28.84l9.39,7.15c-9.04,12.38-20.1,23.15-32.72,31.86l-7.75-10.16Z"/>
            <path id="_パス_100" data-name="パス 100" class="cls-4" d="M256.09,44.22c12.48-8.26,20.66-15.67,31.08-28.84l9.39,7.15c-9.04,12.38-20.1,23.15-32.72,31.86l-7.75-10.16Z"/>
            <path id="_パス_101" data-name="パス 101" class="cls-1" d="M66.25,28c-.33-1.15-.17-2.39.44-3.42.27-.46.44-.97.5-1.5.03-.23.07-.47.12-.73.11-.73.33-1.44.67-2.1.31-.66.73-1.26,1.24-1.78.43-.46.91-.86,1.44-1.19.75-.44,1.61-.67,2.49-.67.64-.06,1.28-.03,1.91.1.47.1.93.24,1.37.44.31.14.64.24.98.29.19.03.4.07.62.12.7.18,1.37.44,2.01.77,1.29.6,1.89.96,2.1,1.05,1.03.53,1.63,1.63,1.53,2.78.16.66.16,1.35,0,2.01-.23.84-.74,1.58-1.43,2.1-.7.45-1.48.74-2.3.86-1.18.29-1.39.16-2.39.48-.61.18-1.19.43-1.72.77-1,.63-1.12,1.14-1.82,1.72-.93.71-2.08,1.08-3.25,1.05-2-.05-3.78-1.29-4.5-3.16"/>
            <path id="_パス_102" data-name="パス 102" class="cls-4" d="M66.25,28c-.33-1.15-.17-2.39.44-3.42.27-.46.44-.97.5-1.5.03-.23.07-.47.12-.73.11-.73.33-1.44.67-2.1.31-.66.73-1.26,1.24-1.78.43-.46.91-.86,1.44-1.19.75-.44,1.61-.67,2.49-.67.64-.06,1.28-.03,1.91.1.47.1.93.24,1.37.44.31.14.64.24.98.29.19.03.4.07.62.12.7.18,1.37.44,2.01.77,1.29.6,1.89.96,2.1,1.05,1.03.53,1.63,1.63,1.53,2.78.16.66.16,1.35,0,2.01-.23.84-.74,1.58-1.43,2.1-.7.45-1.48.74-2.3.86-1.18.29-1.39.16-2.39.48-.61.18-1.19.43-1.72.77-1,.63-1.12,1.14-1.82,1.72-.93.71-2.08,1.08-3.25,1.05-2-.05-3.77-1.3-4.49-3.16Z"/>
            <path id="_パス_103" data-name="パス 103" class="cls-1" d="M60.22,22.46c-.41-.74-.76-1.51-1.05-2.3-.29-.67-.32-1.41-.1-2.1.14-.37.41-.68.76-.86.47-.15.99-.11,1.43.1.54.19,1.06.44,1.53.77.65.35,1.26.77,1.82,1.24.54.41.94.98,1.15,1.63.14.68.04,1.39-.29,2.01-.18.5-.52.94-.96,1.24-.56.29-1.2.39-1.82.29-.65-.03-1.09.02-1.43-.29-.47-.49-.83-1.08-1.05-1.72"/>
            <path id="_パス_104" data-name="パス 104" class="cls-4" d="M60.22,22.46c-.41-.74-.76-1.51-1.05-2.3-.29-.67-.32-1.41-.1-2.1.14-.37.41-.68.76-.86.47-.15.99-.11,1.43.1.54.19,1.06.44,1.53.77.65.35,1.26.77,1.82,1.24.54.41.94.98,1.15,1.63.14.68.04,1.39-.29,2.01-.18.5-.52.94-.96,1.24-.56.29-1.2.39-1.82.29-.65-.03-1.09.02-1.43-.29-.47-.49-.83-1.08-1.05-1.72Z"/>
            <path id="_パス_105" data-name="パス 105" class="cls-1" d="M63.09,14.42c-.23-.75-.36-1.52-.38-2.3-.09-.7-.09-1.41,0-2.1.02-.56.22-1.1.57-1.53.36-.35.84-.56,1.34-.57.56,0,1.1.21,1.53.57.42.32.77.71,1.05,1.15.64.83,1.13,1.77,1.44,2.77.28.73.38,1.52.29,2.3-.07.81-.44,1.56-1.05,2.1-.59.48-1.35.69-2.11.57-.61-.18-1.15-.55-1.53-1.05-.51-.55-.9-1.21-1.15-1.91"/>
            <path id="_パス_106" data-name="パス 106" class="cls-4" d="M63.09,14.42c-.23-.75-.36-1.52-.38-2.3-.09-.7-.09-1.41,0-2.1.02-.56.22-1.1.57-1.53.36-.35.84-.56,1.34-.57.56,0,1.1.21,1.53.57.42.32.77.71,1.05,1.15.64.83,1.13,1.77,1.44,2.77.28.73.38,1.52.29,2.3-.07.81-.44,1.56-1.05,2.1-.59.48-1.35.69-2.11.57-.61-.18-1.15-.55-1.53-1.05-.51-.55-.9-1.21-1.15-1.91Z"/>
            <path id="_パス_107" data-name="パス 107" class="cls-1" d="M68.83,9.63c-.33-.56-.55-1.18-.67-1.82-.07-.66.06-1.33.38-1.91.2-.39.49-.72.86-.96,1.12-.66,2.59.09,2.97.29,1.19.66,2.08,1.76,2.49,3.06.4,1.11.4,2.33,0,3.44-.2.63-.6,1.17-1.15,1.53-.66.4-1.48.47-2.2.19-.51-.26-.95-.66-1.24-1.15-.58-.83-1.06-1.73-1.43-2.68"/>
            <path id="_パス_108" data-name="パス 108" class="cls-4" d="M68.83,9.63c-.33-.56-.55-1.18-.67-1.82-.07-.66.06-1.33.38-1.91.2-.39.49-.72.86-.96,1.12-.66,2.59.09,2.97.29,1.19.66,2.08,1.76,2.49,3.06.4,1.11.4,2.33,0,3.44-.2.63-.6,1.17-1.15,1.53-.66.4-1.48.47-2.2.19-.51-.26-.95-.66-1.24-1.15-.58-.83-1.07-1.73-1.44-2.68Z"/>
            <path id="_パス_109" data-name="パス 109" class="cls-1" d="M77.92,12.79c-.07-.85.05-.67,0-2.1-.06-.51-.02-1.03.1-1.53.08-.4.28-.77.57-1.05.38-.29.86-.43,1.34-.38.6.05,1.17.28,1.63.67.58.45,1.04,1.05,1.34,1.72.38.74.58,1.56.57,2.39.08.85-.16,1.7-.67,2.39-.59.66-1.42,1.04-2.3,1.05-.7.04-1.39-.2-1.91-.67-.5-.52-.56-1.17-.67-2.49"/>
            <path id="_パス_110" data-name="パス 110" class="cls-4" d="M77.92,12.79c-.07-.85.05-.67,0-2.1-.06-.51-.02-1.03.1-1.53.08-.4.28-.77.57-1.05.38-.29.86-.43,1.34-.38.6.05,1.17.28,1.63.67.58.45,1.04,1.05,1.34,1.72.38.74.58,1.56.57,2.39.08.85-.16,1.7-.67,2.39-.59.66-1.42,1.04-2.3,1.05-.7.04-1.39-.2-1.91-.67-.51-.52-.56-1.17-.67-2.49Z"/>
            <path id="_パス_111" data-name="パス 111" class="cls-1" d="M252.01,28.54c-.33-1.15-.17-2.39.44-3.42.27-.46.44-.97.5-1.5.03-.23.07-.47.12-.73.11-.73.33-1.44.67-2.1.31-.66.73-1.26,1.24-1.78.43-.46.91-.86,1.44-1.19.75-.44,1.61-.67,2.49-.67.64-.06,1.28-.03,1.91.1.47.1.93.24,1.37.44.31.14.64.24.98.29.19.03.4.07.62.12.7.18,1.37.44,2.01.77,1.28.6,1.89.96,2.1,1.05,1.03.53,1.63,1.63,1.53,2.78.17.66.17,1.35,0,2.01-.23.84-.74,1.58-1.43,2.1-.7.45-1.48.74-2.3.86-1.18.29-1.39.16-2.39.48-.61.18-1.19.43-1.72.76-1,.63-1.12,1.14-1.82,1.72-.93.71-2.08,1.08-3.25,1.05-2-.05-3.78-1.29-4.5-3.16"/>
            <path id="_パス_112" data-name="パス 112" class="cls-4" d="M252.01,28.54c-.33-1.15-.17-2.39.44-3.42.27-.46.44-.97.5-1.5.03-.23.07-.47.12-.73.11-.73.33-1.44.67-2.1.31-.66.73-1.26,1.24-1.78.43-.46.91-.86,1.44-1.19.75-.44,1.61-.67,2.49-.67.64-.06,1.28-.03,1.91.1.47.1.93.24,1.37.44.31.14.64.24.98.29.19.03.4.07.62.12.7.18,1.37.44,2.01.77,1.28.6,1.89.96,2.1,1.05,1.03.53,1.63,1.63,1.53,2.78.17.66.17,1.35,0,2.01-.23.84-.74,1.58-1.43,2.1-.7.45-1.48.74-2.3.86-1.18.29-1.39.16-2.39.48-.61.18-1.19.43-1.72.76-1,.63-1.12,1.14-1.82,1.72-.93.71-2.08,1.08-3.25,1.05-2-.05-3.77-1.3-4.49-3.16Z"/>
            <path id="_パス_113" data-name="パス 113" class="cls-1" d="M245.98,22.99c-.41-.74-.76-1.51-1.05-2.3-.29-.67-.32-1.41-.1-2.1.14-.37.41-.68.77-.86.47-.15.99-.11,1.43.1.54.19,1.06.44,1.53.77.65.35,1.26.77,1.82,1.24.54.41.94.98,1.15,1.63.14.68.04,1.39-.29,2.01-.18.5-.52.94-.96,1.24-.56.29-1.2.39-1.82.29-.65-.03-1.09.02-1.43-.29-.47-.49-.83-1.08-1.05-1.72"/>
            <path id="_パス_114" data-name="パス 114" class="cls-4" d="M245.98,22.99c-.41-.74-.76-1.51-1.05-2.3-.29-.67-.32-1.41-.1-2.1.14-.37.41-.68.77-.86.47-.15.99-.11,1.43.1.54.19,1.06.44,1.53.77.65.35,1.26.77,1.82,1.24.54.41.94.98,1.15,1.63.14.68.04,1.39-.29,2.01-.18.5-.52.94-.96,1.24-.56.29-1.2.39-1.82.29-.65-.03-1.09.02-1.43-.29-.47-.49-.83-1.08-1.05-1.72Z"/>
            <path id="_パス_115" data-name="パス 115" class="cls-1" d="M248.85,14.95c-.23-.75-.36-1.52-.38-2.3-.09-.7-.09-1.41,0-2.1.02-.56.22-1.1.57-1.53.36-.35.84-.55,1.34-.57.56,0,1.1.21,1.53.57.42.32.77.71,1.05,1.15.64.83,1.13,1.77,1.44,2.77.28.73.38,1.52.29,2.3-.07.81-.44,1.57-1.05,2.11-.59.48-1.35.69-2.11.57-.61-.18-1.15-.55-1.53-1.05-.51-.55-.9-1.21-1.15-1.91"/>
            <path id="_パス_116" data-name="パス 116" class="cls-4" d="M248.85,14.95c-.23-.75-.36-1.52-.38-2.3-.09-.7-.09-1.41,0-2.1.02-.56.22-1.1.57-1.53.36-.35.84-.55,1.34-.57.56,0,1.1.21,1.53.57.42.32.77.71,1.05,1.15.64.83,1.13,1.77,1.44,2.77.28.73.38,1.52.29,2.3-.07.81-.44,1.57-1.05,2.11-.59.48-1.35.69-2.11.57-.61-.18-1.15-.55-1.53-1.05-.51-.55-.9-1.2-1.15-1.91Z"/>
            <path id="_パス_117" data-name="パス 117" class="cls-1" d="M254.59,10.16c-.33-.56-.55-1.18-.67-1.82-.07-.66.06-1.33.38-1.91.2-.39.49-.72.86-.96,1.11-.66,2.59.09,2.97.29,1.19.66,2.08,1.76,2.49,3.06.4,1.11.4,2.33,0,3.44-.2.63-.6,1.17-1.15,1.53-.66.4-1.48.47-2.2.19-.51-.26-.95-.66-1.24-1.15-.58-.83-1.06-1.73-1.43-2.68"/>
            <path id="_パス_118" data-name="パス 118" class="cls-4" d="M254.59,10.16c-.33-.56-.55-1.18-.67-1.82-.07-.66.06-1.33.38-1.91.2-.39.49-.72.86-.96,1.11-.66,2.59.09,2.97.29,1.19.66,2.08,1.76,2.49,3.06.4,1.11.4,2.33,0,3.44-.2.63-.6,1.17-1.15,1.53-.66.4-1.48.47-2.2.19-.51-.26-.95-.66-1.24-1.15-.58-.83-1.07-1.73-1.44-2.68Z"/>
            <path id="_パス_119" data-name="パス 119" class="cls-1" d="M263.68,13.32c-.07-.85.05-.67,0-2.1-.06-.51-.02-1.03.1-1.53.08-.4.28-.77.57-1.05.38-.29.86-.43,1.34-.38.6.05,1.17.28,1.63.67.58.45,1.04,1.05,1.34,1.72.38.74.58,1.56.57,2.39.08.85-.16,1.7-.67,2.39-.59.66-1.42,1.04-2.3,1.05-.7.04-1.39-.2-1.91-.67-.5-.52-.56-1.17-.67-2.49"/>
            <path id="_パス_120" data-name="パス 120" class="cls-4" d="M263.68,13.32c-.07-.85.05-.67,0-2.1-.06-.51-.02-1.03.1-1.53.08-.4.28-.77.57-1.05.38-.29.86-.43,1.34-.38.6.05,1.17.28,1.63.67.58.45,1.04,1.05,1.34,1.72.38.74.58,1.56.57,2.39.08.85-.16,1.7-.67,2.39-.59.66-1.42,1.04-2.3,1.05-.7.04-1.39-.2-1.91-.67-.51-.52-.56-1.17-.67-2.49Z"/>
            <path id="_パス_121" data-name="パス 121" class="cls-6" d="M128.75,4.87l14.03.86-5.42,31.68-11.19-.95,2.58-31.6Z"/>
            <path id="_パス_122" data-name="パス 122" class="cls-4" d="M128.75,4.87l14.03.86-5.42,31.68-11.19-.95,2.58-31.6Z"/>
            <path id="_パス_123" data-name="パス 123" class="cls-7" d="M22.77,49.21c5.77-8.35,8.87-17.13,8.87-27.46v-13.6h11.02v17.04c0,10.59-4.05,19.89-12.66,28.84l-7.23-4.82Z"/>
            <path id="_パス_124" data-name="パス 124" class="cls-4" d="M22.77,49.21c5.77-8.35,8.87-17.13,8.87-27.46v-13.6h11.02v17.04c0,10.59-4.05,19.89-12.66,28.84l-7.23-4.82Z"/>
            <path id="_パス_125" data-name="パス 125" class="cls-6" d="M185.06,8.83l.35,20.83h10.85V8.83h-11.19Z"/>
            <path id="_パス_126" data-name="パス 126" class="cls-4" d="M185.06,8.83l.35,20.83h10.85V8.83h-11.19Z"/>
          </g>
        </g>
      </g>
      <g id="_ロゴ-2" data-name="ロゴ-2">
        <g class="cls-5">
          <g id="_グループ_1" data-name="グループ 1">
            <path id="_パス_1" data-name="パス 1" class="cls-6" d="M6.49,8.24h10.92v26.71H6.49V8.24ZM24.5,48.94c5.72-8.28,8.79-16.98,8.79-27.22v-13.48h10.92v16.9c0,10.5-4.01,19.71-12.54,28.59l-7.17-4.78Z"/>
            <path id="_パス_2" data-name="パス 2" class="cls-8" d="M69.81,43.99c12.37-8.19,20.48-15.53,30.81-28.59l9.3,7.08c-8.96,12.27-19.92,22.94-32.43,31.57l-7.68-10.07Z"/>
            <path id="_パス_3" data-name="パス 3" class="cls-2" d="M142.94,8.83l25.35-.09c-1.2,20.74-3.41,33.03-7.34,44.8l-10.07-2.22c2.48-11.26,3.33-21.25,3.93-32.43l-13.57.09-3.16,18.26-11.09-.94,2.56-31.32,13.91.85-.51,2.99Z"/>
            <path id="_パス_4" data-name="パス 4" class="cls-7" d="M203.28,48.17c5.29-8.28,9.47-18.09,13.23-29.18l-19.97.08-.08,10.5h-10.75l-.34-20.65,44.8-.09-.17,12.29c-4.01,12.8-10.33,24.15-18.09,32.51l-8.62-5.47Z"/>
            <path id="_パス_5" data-name="パス 5" class="cls-8" d="M255.76,43.99c12.37-8.19,20.48-15.53,30.81-28.59l9.3,7.09c-8.96,12.27-19.92,22.94-32.43,31.57l-7.68-10.07Z"/>
            <path id="_パス_6" data-name="パス 6" class="cls-1" d="M67.59,27.92c-.33-1.14-.17-2.37.43-3.39.26-.46.43-.96.49-1.48.03-.22.07-.47.12-.72.11-.73.33-1.43.66-2.09.31-.65.73-1.25,1.23-1.76.42-.45.9-.85,1.42-1.18.75-.44,1.6-.67,2.47-.66.63-.06,1.27-.03,1.9.09.47.1.92.24,1.35.44.31.14.64.24.97.29.19.03.39.07.62.12.69.18,1.36.43,1.99.76,1.27.6,1.88.95,2.09,1.04,1.02.52,1.62,1.61,1.52,2.75.16.65.16,1.34,0,1.99-.23.83-.73,1.57-1.42,2.09-.69.45-1.46.74-2.28.85-1.17.28-1.38.16-2.37.47-.6.17-1.18.43-1.71.76-.99.63-1.11,1.13-1.8,1.71-.93.7-2.06,1.07-3.22,1.04-1.98-.05-3.74-1.28-4.46-3.13"/>
            <path id="_パス_7" data-name="パス 7" class="cls-1" d="M61.62,22.42c-.41-.73-.76-1.49-1.04-2.28-.28-.66-.32-1.4-.1-2.09.14-.37.41-.67.76-.85.47-.15.98-.12,1.42.09.54.18,1.05.44,1.52.76.64.35,1.24.76,1.8,1.23.53.41.93.97,1.14,1.61.14.68.04,1.38-.28,1.99-.18.5-.51.93-.95,1.23-.55.28-1.18.38-1.8.28-.64-.03-1.08.02-1.42-.28-.47-.48-.83-1.07-1.04-1.71"/>
            <path id="_パス_8" data-name="パス 8" class="cls-1" d="M64.46,14.46c-.23-.74-.36-1.5-.38-2.28-.09-.69-.09-1.39,0-2.09.02-.56.22-1.09.57-1.52.36-.35.83-.55,1.33-.57.56,0,1.09.21,1.52.57.41.31.77.7,1.04,1.14.63.82,1.12,1.76,1.42,2.75.27.73.37,1.51.29,2.28-.07.8-.44,1.55-1.04,2.09-.58.48-1.34.69-2.09.57-.61-.17-1.14-.54-1.52-1.04-.5-.55-.89-1.2-1.14-1.9"/>
            <path id="_パス_9" data-name="パス 9" class="cls-1" d="M70.15,9.71c-.32-.56-.55-1.17-.66-1.8-.07-.66.06-1.32.38-1.9.19-.38.49-.71.85-.95,1.1-.65,2.56.09,2.94.28,1.18.66,2.07,1.74,2.47,3.04.4,1.1.4,2.31,0,3.41-.19.62-.6,1.16-1.14,1.52-.66.4-1.46.47-2.18.19-.51-.26-.94-.65-1.23-1.14-.58-.83-1.06-1.72-1.42-2.66"/>
            <path id="_パス_10" data-name="パス 10" class="cls-1" d="M79.16,12.84c-.07-.84.05-.66,0-2.09-.06-.51-.03-1.02.1-1.52.08-.4.28-.76.57-1.04.38-.29.85-.43,1.33-.38.59.05,1.16.28,1.61.66.58.45,1.03,1.04,1.33,1.71.38.73.57,1.55.57,2.37.08.85-.16,1.69-.66,2.37-.58.65-1.4,1.03-2.28,1.04-.7.04-1.38-.2-1.9-.66-.5-.51-.55-1.16-.66-2.47"/>
            <path id="_パス_11" data-name="パス 11" class="cls-1" d="M251.71,28.45c-.33-1.14-.17-2.37.43-3.39.26-.46.43-.96.49-1.48.03-.22.07-.47.12-.72.11-.73.33-1.43.66-2.09.31-.65.73-1.25,1.23-1.76.42-.45.9-.85,1.42-1.18.75-.44,1.6-.67,2.47-.66.63-.06,1.27-.03,1.9.09.47.1.92.24,1.36.44.31.14.64.24.97.29.18.03.39.07.61.12.69.18,1.36.43,1.99.76,1.27.6,1.88.95,2.09,1.04,1.02.53,1.61,1.61,1.52,2.75.16.65.16,1.34,0,1.99-.23.83-.73,1.57-1.42,2.09-.69.45-1.46.74-2.28.85-1.17.28-1.38.16-2.37.47-.6.17-1.18.43-1.71.76-.99.63-1.11,1.13-1.8,1.71-.93.7-2.06,1.07-3.23,1.04-1.98-.05-3.74-1.28-4.46-3.13"/>
            <path id="_パス_12" data-name="パス 12" class="cls-1" d="M245.74,22.95c-.41-.73-.76-1.49-1.04-2.28-.28-.66-.32-1.4-.1-2.09.14-.37.41-.67.76-.85.47-.15.98-.12,1.42.09.54.18,1.05.44,1.52.76.64.35,1.24.76,1.8,1.23.53.41.93.97,1.14,1.61.14.68.04,1.38-.28,1.99-.18.5-.51.93-.95,1.23-.55.28-1.18.38-1.8.28-.64-.03-1.08.02-1.42-.28-.47-.48-.83-1.07-1.04-1.71"/>
            <path id="_パス_13" data-name="パス 13" class="cls-1" d="M248.58,14.98c-.23-.74-.36-1.5-.38-2.28-.09-.69-.09-1.39,0-2.09.02-.56.22-1.09.57-1.52.36-.35.83-.55,1.33-.57.56,0,1.09.21,1.52.57.41.31.77.7,1.04,1.14.63.83,1.12,1.76,1.42,2.75.27.73.37,1.51.28,2.28-.07.8-.44,1.55-1.04,2.09-.58.48-1.34.69-2.09.57-.61-.17-1.14-.54-1.52-1.04-.5-.55-.89-1.2-1.14-1.9"/>
            <path id="_パス_14" data-name="パス 14" class="cls-1" d="M254.27,10.24c-.32-.56-.55-1.17-.66-1.8-.07-.66.06-1.32.38-1.9.2-.39.49-.71.85-.95,1.1-.65,2.56.09,2.94.28,1.18.66,2.07,1.74,2.47,3.04.4,1.1.4,2.31,0,3.41-.19.62-.6,1.16-1.14,1.52-.66.4-1.46.47-2.18.19-.51-.26-.94-.65-1.23-1.14-.58-.83-1.06-1.72-1.42-2.66"/>
            <path id="_パス_15" data-name="パス 15" class="cls-1" d="M263.28,13.37c-.07-.84.05-.66,0-2.09-.06-.51-.03-1.02.1-1.52.08-.4.28-.76.57-1.04.38-.29.85-.43,1.33-.38.59.05,1.16.28,1.61.66.58.45,1.03,1.04,1.33,1.71.38.73.57,1.55.57,2.37.08.85-.16,1.69-.66,2.37-.58.65-1.4,1.03-2.28,1.04-.7.04-1.38-.2-1.9-.66-.5-.51-.55-1.16-.66-2.47"/>
            <path id="_パス_16" data-name="パス 16" class="cls-6" d="M129.55,4.99l13.91.85-5.38,31.4-11.09-.94,2.56-31.31Z"/>
            <path id="_パス_17" data-name="パス 17" class="cls-7" d="M24.5,48.94c5.72-8.28,8.79-16.98,8.79-27.22v-13.48h10.92v16.9c0,10.5-4.01,19.71-12.54,28.59l-7.17-4.78Z"/>
            <path id="_パス_18" data-name="パス 18" class="cls-6" d="M185.36,8.92l.34,20.65h10.75V8.92h-11.09Z"/>
          </g>
        </g>
      </g>
    </g>
  </g>
</svg>